**ABCDEFGHIJKLMNOPQRSTUVWXYZabcdefghijklmnopqrstuvwxyz**************************
**PARASOLID !"#$%&'()*+,-./:;<=>?@[\]^_`{|}~0123456789**************************
**PART1;
MC=unknown;
MC_MODEL=unknown;
MC_ID=unknown;
OS=unknown;
OS_RELEASE=unknown;
FRU=Parasolid 34.1.198;
APPL=Onshape;
SITE=unknown;
USER=unknown;
FORMAT=text;
GUISE=transmit;
KEY=BTGapi::writeModels_.xmt;
FILE=BTGapi::writeModels_.xmt;
DATE=2022-05-28T15:22:47 (UTC);
**PART2;
SCH=SCH_3401198_34101;
USFLD_SIZE=0;
**PART3;
**END_OF_HEADER*****************************************************************
T51 : TRANSMIT FILE created by modeller version 340119823 SCH_3401198_34101_1300
6231 0 12 36 CCCI7 lattice222 0 CCCI4 mesh1006 0 I8 polyline1008 0 CCCCCCCDI5 ow
ner1040 0 CCCI16 boundary_lattice222 0 CCCI13 boundary_mesh1006 0 I17 boundary_p
olyline1008 0 CCCA16 index_map_offset0 0 1 dA9 index_map82 0 A17 node_id_index_m
ap82 0 A20 schema_embedding_map82 0 A5 child12 0 A14 lowest_node_id0 0 1 dA16 me
sh_offset_data206 0 Z1 75 2 3 0 0 0 0 0 0 0 1e3 1e-8 0 4 0 1 0 1 1 5 0 6 7 0 0 0
 8 9 0 0 0 0 0 0 0 0 81 255 1 2 72 10 1 11 0 0 0 12 70 11 CI9 list_type0 0 1 uI1
0 notransmit0 0 1 lCCCDCCDI12 finger_index0 0 1 dI12 finger_block1012 0 CZ3 0 4
 T1 0 0 7 20 1 13 13 13 255 5 39 0 1 0 14 0 0 15 0 51 255 6 38 0 14 16 0 0 -0 15
3080849893419e-33 .0545 0 0 -1 .0025 -1 0 0 31 255 7 33 0 17 18 0 0 +0 153080849
893419e-33 0 0 0 1 1 0 0 .0025 19 9 CCCCCCI5 frame230 0 CA5 owner12 0 Z8 13 0 1
 15 0 19 0 V0 16 255 9 7 20 ?21 0 17 18 0 0 1 81 1 20 66 22 9 23 0 24 25 26 17 2
55 21 0 27 21 21 0 28 9 0 0 +16 17 28 29 ?30 9 0 7 0 0 1 31 18 9 0 9 0 7 0 +0 15
3080849893419e-33 .0545 0 0 1 1 0 0 .0025 81 1 29 68 22 17 31 0 25 32 33 17 30 0
 34 30 30 0 35 17 0 0 +15 255 34 36 0 30 14 0 17 35 0 36 35 35 0 30 17 0 0 -15 3
6 27 0 35 37 0 14 255 37 23 38 ?0 39 36 5 16 -0 0 0 39 19 81 1 38 75 40 37 25 0
 41 0 42 14 39 1 41 ?37 14 27 5 43 +0 0 37 14 19 50 255 16 32 0 37 43 6 0 +0 0 0
 0 0 1 1 0 0 13 19 14 0 0 0 0 0 0 8 14 14 14 35 44 ?39 0 45 5 6 -0 0 39 0 19 81
 1 44 73 40 14 32 0 0 41 46 15 45 34 0 28 14 34 17 28 0 45 28 28 0 21 9 0 0 -80
 7 CCCCCDI12 legal_owners0 16 1 lCZ1 40 0 47 8001 0 0 0 0 3 5 0 0 0 FFFFTFTFFFFF
FFFF2 81 1 32 69 22 14 48 44 29 0 49 81 1 41 74 40 39 24 0 44 38 50 83 255 3 46
 .615686274509804 .811764705882353 .929411764705882 81 1 24 65 22 39 51 41 52 20
 53 83 3 50 .615686274509804 .811764705882353 .929411764705882 80 1 22 54 55 900
0 0 0 0 0 3 6 0 0 0 FFTFTFTTFFFFFFFF1 81 1 51 59 56 39 0 24 48 57 58 81 1 52 64
 22 1 59 60 0 24 61 82 255 3 53 4 0 2 81 1 59 62 62 1 63 52 0 0 64 81 1 60 70 65
 1 52 11 0 0 66 82 3 61 4 0 3 80 1 65 67 68 8038 0 0 0 0 0 0 0 0 0 TTTTTTTTTTTTT
FTF10 81 1 11 71 67 1 60 2 0 0 69 98 255 6 66 80 97 114 116 32 49 80 1 67 70 71
 8017 0 0 0 0 0 0 0 0 0 TTTTTTTTTTTTTFTF3 84 255 6 69 Part 179 255 13 71 SDL/TYS
A_NAME79 14 68 SDL/TYSA_UNAME80 1 62 56 72 9000 0 0 0 0 3 5 0 0 0 FFTFTFTTFFFFFF
FF2 81 1 63 61 56 1 0 59 57 0 73 83 1 64 4 80 1 56 74 75 9000 0 0 0 0 3 5 0 0 0
 FFTFTFTTFFFFFFFF2 81 1 57 60 56 37 0 25 51 63 76 83 1 73 -1 81 1 25 67 22 37 57
 38 20 29 77 83 1 76 4 82 3 77 4 1 2 79 13 75 BTI/importTag79 18 72 BTI/importMa
xCount81 1 48 58 56 14 0 32 31 51 78 83 1 58 3 81 1 31 57 56 17 0 29 23 48 79 83
 1 78 2 81 1 23 56 56 9 0 20 0 31 80 83 1 79 1 83 1 80 0 79 9 55 BTI/DetId82 3 4
9 4 2 2 79 15 47 SDL/TYSA_COLOUR50 43 3 0 39 0 16 0 +0 0 .0545 0 0 1 1 0 0 15 27
 6 0 21 39 0 83 3 42 .615686274509804 .811764705882353 .929411764705882 82 3 33
 4 1 1 82 3 26 4 0 1 19 15 40 0 1 0 8 5 0 S0 74 4 CI16 index_map_offset0 0 1 dCC
Z20 13 7 0 0 63 59 32 60 11 2 38 0 0 0 0 0 0 0 0 0 0 0 0 0 80 1 10 40 81 8040 0
 0 0 0 3 5 0 0 0 TTTFFFFFFFFFFFFF2 83 3 12 .615686274509804 .811764705882353 .92
9411764705882 79 17 81 SDL/TYSA_COLOUR_21 0 
