**ABCDEFGHIJKLMNOPQRSTUVWXYZabcdefghijklmnopqrstuvwxyz**************************
**PARASOLID !"#$%&'()*+,-./:;<=>?@[\]^_`{|}~0123456789**************************
**PART1;
MC=unknown;
MC_MODEL=unknown;
MC_ID=unknown;
OS=unknown;
OS_RELEASE=unknown;
FRU=Parasolid 34.1.198;
APPL=Onshape;
SITE=unknown;
USER=unknown;
FORMAT=text;
GUISE=transmit;
KEY=BTGapi::writeModels_.xmt;
FILE=BTGapi::writeModels_.xmt;
DATE=2022-05-28T15:22:18 (UTC);
**PART2;
SCH=SCH_3401198_34101;
USFLD_SIZE=0;
**PART3;
**END_OF_HEADER*****************************************************************
T51 : TRANSMIT FILE created by modeller version 340119823 SCH_3401198_34101_1300
6231 0 12 36 CCCI7 lattice222 0 CCCI4 mesh1006 0 I8 polyline1008 0 CCCCCCCDI5 ow
ner1040 0 CCCI16 boundary_lattice222 0 CCCI13 boundary_mesh1006 0 I17 boundary_p
olyline1008 0 CCCA16 index_map_offset0 0 1 dA9 index_map82 0 A17 node_id_index_m
ap82 0 A20 schema_embedding_map82 0 A5 child12 0 A14 lowest_node_id0 0 1 dA16 me
sh_offset_data206 0 Z1 2054 2 3 0 0 0 0 0 0 0 1e3 1e-8 0 4 0 1 0 1 1 5 0 6 7 8 0
 0 9 10 11 0 0 0 0 0 0 0 81 255 1 2 2040 12 1 13 0 0 0 14 70 11 CI9 list_type0 0
 1 uI10 notransmit0 0 1 lCCCDCCDI12 finger_index0 0 1 dI12 finger_block1012 0 CZ
3 0 4 T1 0 0 7 20 1 15 15 13 255 5 949 0 1 0 16 0 0 17 0 51 255 6 938 0 18 19 0
 0 --.03530745 0 .005 0 0 -1 .0025 -1 0 0 31 255 7 1186 0 20 21 0 0 +.03530745 4
79352399497596e-32 0 0 0 1 1 0 0 .011 29 255 8 1380 0 11 22 0 .00894086817680233
 .002610526513288455 .005 19 9 CCCCCCI5 frame230 0 CA5 owner12 0 Z9 462 0 1 17 0
 23 0 V0 16 255 10 896 24 ?25 0 26 27 0 0 1 18 255 11 1376 28 29 0 30 8 ?1 81 1
 28 2020 31 11 32 0 33 34 35 17 255 29 0 36 37 38 11 39 40 0 41 +18 30 1361 33 4
2 11 43 22 ?1 81 1 33 2019 31 30 44 0 45 28 46 17 42 0 47 48 49 30 50 51 0 52 +1
8 43 1351 45 49 30 53 54 ?1 29 22 1365 0 30 54 8 .00842583831399672 -.0023894734
8671155 .005 29 54 1355 0 43 55 22 .00842583831399672 -.00238947348671155 0 29 5
5 1340 0 53 56 54 .00894086817680233 .002610526513288455 0 18 53 1336 57 37 43 5
8 55 ?1 29 56 879 0 59 60 55 -.00870211422443421 .002610526513288455 0 18 59 826
 61 62 63 64 56 ?1 29 60 882 0 64 65 56 -.00837768241762957 -.00238947348671155
 0 18 64 838 66 67 59 68 60 ?1 29 65 885 0 68 69 60 .02405843153364915 -.0023894
7348671153 0 18 68 850 70 71 64 72 65 ?1 29 69 886 0 72 73 65 .02405843153364915
 .00238947348671154 0 18 72 854 74 25 68 75 69 ?1 29 73 887 0 75 76 69 -.0342439
2997326055 -.003856024526986835 0 18 75 858 77 78 72 79 73 ?1 29 76 888 0 79 80
 73 -.0343726249973126 .003889228999988365 0 18 79 862 81 82 75 83 76 ?1 29 80 4
58 0 58 84 76 -.00870211422443421 .002610526513288455 .005 18 58 456 85 38 53 86
 80 ?1 29 84 438 0 86 87 80 -.00837768241762957 -.00238947348671155 .005 18 86 4
36 88 89 58 90 84 ?1 29 87 388 0 90 91 84 .02405843153364915 -.00238947348671153
 .005 18 90 386 92 93 86 94 87 ?1 29 91 383 0 94 95 87 .02405843153364915 .00238
947348671154 .005 18 94 381 96 97 90 98 91 ?1 29 95 323 0 98 99 91 -.03424392997
326055 -.003856024526986835 .005 18 98 321 100 101 94 63 95 ?1 29 99 318 0 63 10
2 95 -.0343726249973126 .003889228999988365 .005 18 63 316 103 104 98 59 99 ?1 2
9 102 1796 0 105 106 99 .02759488108951355 .00983698535126476 .005 18 105 1646 1
07 108 109 110 102 ?1 29 106 1797 0 110 111 102 .02732802006911205 -.00962178247
40559 .005 18 110 1642 112 113 105 0 106 ?1 29 111 1806 0 83 114 106 .0275948810
8951355 .00983698535126476 0 18 83 1648 115 116 79 109 111 ?1 29 114 1807 0 109
 0 111 .02732802006911205 -.0096217824740559 0 18 109 1644 117 118 83 105 114 ?1
 81 1 117 2032 31 109 119 0 112 107 120 17 118 0 121 122 123 109 113 124 0 125 -
15 255 121 1697 0 123 126 0 17 122 0 121 108 118 83 125 127 0 128 +17 123 0 121
 118 108 110 129 130 0 131 -17 113 0 132 133 134 110 118 124 0 123 +16 124 1510
 135 ?113 136 137 138 0 0 1 17 125 0 139 140 128 109 122 127 0 134 -15 139 1856
 0 140 141 142 17 140 0 139 143 125 43 134 144 0 0 +17 128 0 139 125 145 83 146
 147 0 0 +16 127 1513 148 ?122 51 147 149 0 0 1 17 134 0 132 113 50 109 140 144
 0 0 -15 132 1693 0 133 150 0 17 50 0 132 134 133 43 42 51 0 140 -16 144 1598 15
1 ?140 147 130 152 0 0 1 81 1 151 2029 31 144 153 0 154 155 156 16 147 1595 154
 ?128 127 144 157 0 0 1 16 130 1614 155 ?129 144 158 159 0 0 1 31 152 1791 0 144
 0 157 0 +.00743590472926788 -.0332940281913118 0 0 0 1 1 0 0 .03092040539824475
 31 157 1788 0 147 152 149 0 +.00882657156526264 .03059505497238275 0 0 0 1 1 0
 0 .0279847618677249 31 149 1781 0 127 157 160 0 +.03530745 365918233213858e-32
 0 0 0 1 1 0 0 .0125 31 160 1780 0 161 149 162 0 +.00743590472926788 -.033294028
1913118 .005 0 0 1 1 0 0 .03092040539824475 16 161 1507 34 ?133 158 0 160 0 0 1
 31 162 1777 0 158 160 159 0 +.00882657156526264 .03059505497238275 .005 0 0 1 1
 0 0 .0279847618677249 16 158 1519 163 ?164 130 161 162 0 0 1 31 159 1770 0 130
 162 165 0 +.03530745 365918233213858e-32 .005 0 0 1 1 0 0 .0125 30 255 165 1769
 0 137 159 138 0 +.02759488108951355 .00983698535126476 0 0 0 1 16 137 1516 166
 ?108 124 167 165 0 0 1 30 138 1768 0 124 165 168 0 +.02732802006911205 -.009621
7824740559 0 0 0 1 30 168 1763 0 167 138 169 0 +.00894086817680233 .002610526513
288455 0 0 0 1 16 167 1522 170 ?41 137 51 168 0 0 1 30 169 1762 0 51 168 171 0 +
.00842583831399672 -.00238947348671155 0 0 0 1 16 51 1582 172 ?42 167 127 169 0
 0 1 31 171 1247 0 136 169 173 0 +.03530745 479352399497596e-32 .005 0 0 1 1 0 0
 .011 16 136 1213 174 ?175 20 124 171 0 0 1 31 173 53 0 176 171 177 0 +-.0353074
5 0 .005 0 0 1 1 0 0 .0025 16 176 51 178 ?179 180 181 173 0 0 1 31 177 68 0 180
 173 182 0 +-.03530745 0 .005 0 0 1 1 0 0 .004 16 180 66 183 ?101 184 176 177 0
 0 1 30 182 178 0 184 177 185 0 +.02405843153364915 -477048955893622e-32 .005 0
 -1 0 16 184 176 186 ?93 187 180 182 0 0 1 31 185 223 0 187 182 188 0 +-.0118297
691119798 .1981341966483465 .005 0 0 1 1 0 0 .195548683984778 16 187 221 189 ?19
0 191 184 185 0 0 1 31 188 243 0 191 185 192 0 +-.01152920105670932 -.1756455000
476015 .005 0 0 1 1 0 0 .173284687175181 16 191 241 193 ?194 195 187 188 0 0 1 3
0 192 248 0 195 188 196 0 +.001247159671039172 -.00238947348671155 .005 1 0 0 16
 195 246 197 ?52 198 191 192 0 0 1 31 196 263 0 198 192 199 0 +.03530745 4119968
255444915e-33 .005 0 0 1 1 0 0 .0115 16 198 261 200 ?201 40 195 196 0 0 1 30 199
 273 0 40 196 202 0 +.001247160136699514 .002610526513288455 .005 1 0 0 16 40 27
1 203 ?29 204 198 199 0 0 1 31 202 878 0 205 199 206 0 +-.03530745 0 0 0 0 1 1 0
 0 .0025 16 205 820 207 ?208 209 20 202 0 0 1 31 206 877 0 209 202 210 0 +-.0353
0745 0 0 0 0 1 1 0 0 .004 16 209 812 211 ?212 213 205 206 0 0 1 30 210 873 0 213
 206 214 0 +.02405843153364915 -477048955893622e-32 0 0 -1 0 16 213 778 215 ?216
 217 209 210 0 0 1 31 214 871 0 217 210 218 0 +-.0118297691119798 .1981341966483
465 0 0 0 1 1 0 0 .195548683984778 16 217 764 219 ?220 221 213 214 0 0 1 31 218
 870 0 221 214 222 0 +-.01152920105670932 -.1756455000476015 0 0 0 1 1 0 0 .1732
84687175181 16 221 758 223 ?224 225 217 218 0 0 1 30 222 869 0 225 218 226 0 +.0
01247159671039172 -.00238947348671155 0 1 0 0 16 225 754 227 ?49 228 221 222 0 0
 1 31 226 868 0 228 222 229 0 +.03530745 4119968255444915e-33 0 0 0 1 1 0 0 .011
5 16 228 750 230 ?231 181 225 226 0 0 1 30 229 867 0 181 226 232 0 +.00124716013
6699514 .002610526513288455 0 1 0 0 16 181 746 233 ?145 176 228 229 0 0 1 30 232
 939 0 204 229 234 0 +-.00870211422443421 .002610526513288455 .005 0 0 -1 16 204
 889 235 ?62 236 40 232 0 0 1 30 234 942 0 236 232 237 0 +-.00837768241762957 -.
00238947348671155 .005 0 0 -1 16 236 892 238 ?67 239 204 234 0 0 1 30 237 945 0
 26 234 27 0 +.02405843153364915 -.00238947348671153 .005 0 0 -1 16 26 895 240 ?
71 10 241 237 0 0 1 30 27 946 0 10 237 242 0 +.02405843153364915 .00238947348671
154 .005 0 0 -1 30 242 947 0 239 27 21 0 +-.03424392997326055 -.0038560245269868
35 .005 0 0 -1 16 239 897 243 ?78 241 236 242 0 0 1 30 21 948 0 241 242 7 0 +-.0
343726249973126 .003889228999988365 .005 0 0 -1 16 241 898 244 ?82 26 239 21 0 0
 1 81 1 244 2005 31 241 245 0 243 246 247 17 82 0 248 212 249 79 104 241 0 250 +
15 248 921 0 212 251 0 17 212 0 248 252 82 75 250 209 0 224 +17 249 0 248 82 252
 63 101 180 0 253 -17 104 0 254 190 255 63 82 241 0 249 -17 250 0 139 220 224 79
 212 209 0 255 -17 220 0 139 145 250 59 255 217 0 256 +17 224 0 139 250 143 75 2
57 221 0 0 +17 255 0 254 104 62 79 220 217 0 0 -15 254 907 0 255 258 0 17 62 0 2
54 255 190 59 38 204 0 220 +17 190 0 254 62 104 58 253 187 0 39 +17 38 0 36 29 2
56 58 62 204 0 190 -15 36 1387 0 37 259 0 17 256 0 36 38 37 59 145 181 0 0 -17 3
7 0 36 256 29 53 41 167 0 145 -17 145 0 139 128 220 53 256 181 0 146 +17 146 0 2
60 41 116 53 128 147 0 0 -15 260 1701 0 164 261 0 17 41 0 260 164 146 11 37 167
 0 262 +17 116 0 260 146 164 83 108 137 0 122 -17 164 0 260 116 41 105 262 158 0
 129 +17 108 0 121 123 122 105 116 137 0 164 +17 262 0 263 39 129 11 164 158 0 0
 -17 129 0 263 262 131 105 123 130 0 0 +15 263 1861 0 52 264 265 17 131 0 263 12
9 52 110 133 161 0 0 -17 52 0 263 131 266 30 48 195 0 133 +17 133 0 132 50 113 3
0 131 161 0 0 +17 266 0 263 52 101 86 194 191 0 0 -17 48 0 47 67 42 86 52 195 0
 266 -15 47 903 0 49 267 0 17 67 0 47 49 48 64 89 236 0 143 +17 49 0 47 42 67 43
 143 225 0 50 +17 89 0 268 194 257 86 67 236 0 48 -17 143 0 139 224 140 64 49 22
5 0 257 -17 257 0 268 89 78 64 224 221 0 0 -15 268 905 0 257 269 0 17 78 0 268 2
57 194 75 252 239 0 212 +17 194 0 268 78 89 98 266 191 0 0 +17 252 0 248 249 212
 98 78 239 0 194 -14 255 269 906 270 ?267 251 268 5 271 +0 0 267 251 23 81 1 270
 2044 272 269 273 0 274 275 276 14 267 904 275 ?259 269 47 5 277 -0 0 259 269 23
 14 251 922 274 ?269 258 248 5 19 -0 0 269 258 23 51 271 930 0 269 277 278 0 --.
01152920105670932 -.1756455000476015 .005 0 0 -1 .173284687175181 -1 0 0 13 23 4
63 0 0 0 0 0 0 9 16 14 16 902 279 ?258 0 280 5 281 +0 0 258 0 23 81 1 279 2041 2
72 16 282 0 0 283 284 14 258 908 283 ?251 16 254 5 278 +0 0 251 16 23 15 280 901
 0 285 16 0 51 281 928 0 16 286 277 0 -.03530745 4119968255444915e-33 .005 0 0 -
1 .0115 -1 0 0 50 255 286 927 0 259 287 281 0 +.001247160136699514 .002610526513
288455 .005 0 1 0 0 0 1 50 277 929 0 267 281 271 0 +.001247159671039172 -.002389
47348671155 .005 0 1 0 0 0 1 14 259 900 288 ?18 267 36 5 286 +0 0 18 267 23 50 2
87 866 0 141 289 286 0 +.00375 0 0 0 0 1 1 0 0 14 141 700 290 ?291 264 139 5 287
 -0 0 291 264 23 50 289 3 0 264 292 287 0 +.00375 0 .005 0 0 1 1 0 0 14 264 1 29
3 ?141 294 263 5 289 +0 0 141 294 23 51 292 1243 0 291 295 289 0 +.03530745 4793
52399497596e-32 -.02 0 0 1 .011 1 0 0 14 291 1227 296 ?150 141 297 5 292 -0 0 15
0 141 23 51 295 1741 0 150 298 292 0 +.00743590472926788 -.0332940281913118 0 0
 0 1 .03092040539824475 1 0 0 14 150 1690 299 ?126 291 132 5 295 -0 0 126 291 23
 51 298 1744 0 261 300 295 0 +.00882657156526264 .03059505497238275 0 0 0 1 .027
9847618677249 1 0 0 14 261 1698 301 ?0 126 260 5 298 -0 0 0 126 23 51 300 1751 0
 126 0 298 0 +.03530745 365918233213858e-32 0 0 0 1 .0125 1 0 0 14 126 1694 302
 ?261 150 121 5 300 +0 0 261 150 23 81 1 302 2053 272 126 303 0 299 301 304 80 7
 CCCCCDI12 legal_owners0 16 1 lCZ1 272 0 305 8001 0 0 0 0 3 5 0 0 0 FFFFTFTFFFFF
FFFF2 81 1 303 2036 31 126 306 302 307 308 309 81 1 299 2052 272 150 307 0 296 3
02 310 81 1 301 2054 272 261 308 0 302 0 311 83 255 3 304 .615686274509804 .8117
64705882353 .929411764705882 81 1 308 2037 31 261 312 301 303 0 313 83 3 311 .61
5686274509804 .811764705882353 .929411764705882 80 1 31 314 315 9000 0 0 0 0 3 6
 0 0 0 FFTFTFTTFFFFFFFF1 81 1 312 1965 316 261 0 308 306 317 318 82 255 3 313 4
 13 2 80 1 316 319 320 9000 0 0 0 0 3 5 0 0 0 FFTFTFTTFFFFFFFF2 81 1 306 1964 31
6 126 0 303 321 312 322 81 1 317 1966 316 1 0 323 312 0 324 83 1 318 67 81 1 323
 1967 325 1 317 326 0 0 327 83 1 324 -1 80 1 325 316 328 9000 0 0 0 0 3 5 0 0 0
 FFTFTFTTFFFFFFFF2 81 1 326 1969 31 1 323 329 0 330 331 83 1 327 67 81 1 329 203
8 332 1 326 13 0 0 333 81 1 330 1970 31 264 334 293 326 178 335 82 3 331 4 0 3 8
1 1 334 1960 316 264 0 330 336 337 338 81 1 293 2049 272 264 330 0 339 290 340 8
1 1 178 1971 31 176 341 0 330 183 342 82 3 335 4 0 2 81 1 341 1931 316 176 0 178
 343 344 345 81 1 183 1972 31 180 343 0 178 186 346 82 3 342 4 0 1 81 1 343 1930
 316 180 0 183 347 341 348 81 1 186 1973 31 184 347 0 183 189 349 82 3 346 4 1 1
 81 1 347 1929 316 184 0 186 350 343 351 81 1 189 1974 31 187 350 0 186 193 352
 82 3 349 4 2 1 81 1 350 1928 316 187 0 189 353 347 354 81 1 193 1975 31 191 353
 0 189 197 355 82 3 352 4 3 1 81 1 353 1927 316 191 0 193 356 350 357 81 1 197 1
976 31 195 356 0 193 200 358 82 3 355 4 4 1 81 1 356 1926 316 195 0 197 359 353
 360 81 1 200 1977 31 198 359 0 197 203 361 82 3 358 4 5 1 81 1 359 1925 316 198
 0 200 362 356 363 81 1 203 1978 31 40 362 0 200 103 364 82 3 361 4 6 1 81 1 362
 1924 316 40 0 203 365 359 366 81 1 103 1979 31 63 367 0 203 100 368 82 3 364 4
 7 1 81 1 367 1907 316 63 0 103 369 370 371 81 1 100 1980 31 98 369 0 103 96 372
 82 3 368 4 0 0 81 1 369 1906 316 98 0 100 373 367 374 81 1 96 1981 31 94 373 0
 100 92 375 82 3 372 4 1 0 81 1 373 1905 316 94 0 96 376 369 377 81 1 92 1982 31
 90 376 0 96 88 378 82 3 375 4 2 0 81 1 376 1904 316 90 0 92 379 373 380 81 1 88
 1983 31 86 379 0 92 85 381 82 3 378 4 3 0 81 1 379 1903 316 86 0 88 382 376 383
 81 1 85 1984 31 58 382 0 88 384 385 82 3 381 4 4 0 81 1 382 1902 316 58 0 85 38
6 379 387 81 1 384 1985 31 141 337 290 85 233 388 82 3 385 4 5 0 81 1 337 1961 3
16 141 0 384 334 389 390 81 1 290 2050 272 141 384 0 293 296 391 81 1 233 1986 3
1 181 344 0 384 230 392 82 3 388 4 1 2 81 1 344 1932 316 181 0 233 341 393 394 8
1 1 230 1987 31 228 393 0 233 227 395 82 3 392 4 8 1 81 1 393 1933 316 228 0 230
 344 396 397 81 1 227 1988 31 225 396 0 230 223 398 82 3 395 4 9 1 81 1 396 1934
 316 225 0 227 393 399 400 81 1 223 1989 31 221 399 0 227 219 401 82 3 398 4 10
 1 81 1 399 1935 316 221 0 223 396 402 403 81 1 219 1990 31 217 402 0 223 215 40
4 82 3 401 4 11 1 81 1 402 1936 316 217 0 219 399 405 406 81 1 215 1991 31 213 4
05 0 219 211 407 82 3 404 4 12 1 81 1 405 1937 316 213 0 215 402 408 409 81 1 21
1 1992 31 209 408 0 215 207 410 82 3 407 4 13 1 81 1 408 1938 316 209 0 211 405
 411 412 81 1 207 1993 31 205 411 0 211 61 413 82 3 410 4 14 1 81 1 411 1939 316
 205 0 207 408 414 415 81 1 61 1994 31 59 370 0 207 66 416 82 3 413 4 15 1 81 1
 370 1908 316 59 0 61 367 417 418 81 1 66 1995 31 64 417 0 61 70 419 82 3 416 4
 6 0 81 1 417 1909 316 64 0 66 370 420 421 81 1 70 1996 31 68 420 0 66 74 422 82
 3 419 4 7 0 81 1 420 1910 316 68 0 70 417 423 424 81 1 74 1997 31 72 423 0 70 7
7 425 82 3 422 4 8 0 81 1 423 1911 316 72 0 74 420 426 427 81 1 77 1998 31 75 42
6 0 74 81 428 82 3 425 4 9 0 81 1 426 1912 316 75 0 77 423 429 430 81 1 81 1999
 31 79 429 0 77 235 431 82 3 428 4 10 0 81 1 429 1913 316 79 0 81 426 432 433 81
 1 235 2000 31 204 365 0 81 238 434 82 3 431 4 11 0 81 1 365 1923 316 204 0 235
 435 362 436 81 1 238 2001 31 236 435 0 235 240 437 82 3 434 4 16 1 81 1 435 192
2 316 236 0 238 438 365 439 81 1 240 2002 31 26 440 0 238 24 441 82 3 437 4 17 1
 81 1 440 1919 316 26 0 240 442 245 443 81 1 24 2003 31 10 442 0 240 243 444 82
 3 441 4 18 1 81 1 442 1918 316 10 0 24 445 440 446 81 1 243 2004 31 239 438 0 2
4 244 447 82 3 444 4 19 1 81 1 438 1921 316 239 0 243 245 435 448 82 3 447 4 20
 1 81 1 245 1920 316 241 0 244 440 438 449 83 1 448 23 83 1 449 22 81 1 445 1917
 316 110 0 112 450 442 451 83 1 446 20 81 1 112 2031 31 110 445 0 155 117 452 81
 1 450 1916 316 105 0 107 119 445 453 83 1 451 19 81 1 107 2033 31 105 450 0 117
 115 454 81 1 119 1915 316 109 0 117 432 450 455 83 1 453 18 81 1 432 1914 316 8
3 0 115 429 119 456 83 1 455 17 81 1 115 2034 31 83 432 0 107 307 457 83 1 456 1
6 81 1 307 2035 31 150 321 299 115 303 458 82 3 457 4 19 0 81 1 321 1963 316 150
 0 307 389 306 459 82 3 458 4 11 2 81 1 389 1962 316 291 0 460 337 321 461 83 1
 459 65 81 1 460 2016 31 291 389 296 174 57 462 83 1 461 64 81 1 296 2051 272 29
1 460 0 290 299 463 81 1 174 2015 31 136 464 0 465 460 466 81 1 57 2017 31 53 38
6 0 460 45 467 82 3 462 4 10 2 81 1 386 1901 316 53 0 57 468 382 469 81 1 45 201
8 31 43 468 0 57 33 470 82 3 467 4 12 0 81 1 468 1900 316 43 0 45 44 386 471 82
 3 470 4 13 0 81 1 44 1899 316 30 0 33 32 468 472 83 1 471 2 81 1 32 1898 316 11
 0 28 0 44 473 83 1 472 1 83 1 473 0 83 1 469 3 81 1 464 1941 316 136 0 174 414
 474 475 81 1 465 2014 31 20 414 0 476 174 477 82 3 466 4 23 1 16 20 1207 465 ?4
78 205 136 7 0 0 1 81 1 414 1940 316 20 0 465 411 464 479 81 1 476 2013 31 18 48
0 481 482 465 483 82 3 477 4 22 1 14 18 924 481 ?294 259 484 5 6 +0 0 294 259 23
 81 1 480 1958 316 18 0 476 485 336 486 81 1 481 2047 272 18 476 0 288 339 487 8
1 1 482 2012 31 251 488 274 489 476 490 82 3 483 4 9 2 81 1 488 1954 316 251 0 4
82 491 492 493 81 1 274 2043 272 251 482 0 283 270 494 81 1 489 2011 31 294 336
 339 495 482 496 82 3 490 4 8 2 14 294 912 339 ?264 18 497 5 498 -0 0 264 18 23
 81 1 336 1959 316 294 0 489 480 334 499 81 1 339 2048 272 294 489 0 481 293 500
 81 1 495 2010 31 258 491 283 273 489 501 82 3 496 4 7 2 81 1 491 1953 316 258 0
 495 502 488 503 81 1 283 2042 272 258 495 0 279 274 504 81 1 273 2009 31 269 49
2 270 505 495 506 82 3 501 4 6 2 81 1 492 1955 316 269 0 273 488 507 508 81 1 50
5 2008 31 267 507 275 282 273 509 82 3 506 4 5 2 81 1 507 1956 316 267 0 505 492
 485 510 81 1 275 2045 272 267 505 0 270 288 511 81 1 282 2007 31 16 502 279 246
 505 512 82 3 509 4 4 2 81 1 502 1952 316 16 0 282 513 491 514 81 1 246 2006 31
 259 485 288 244 282 515 82 3 512 4 3 2 81 1 485 1957 316 259 0 246 507 480 516
 81 1 288 2046 272 259 246 0 275 481 517 82 3 515 4 2 2 83 3 517 .61568627450980
4 .811764705882353 .929411764705882 83 1 516 59 81 1 513 1951 316 161 0 34 518 5
02 519 83 1 514 54 81 1 34 2021 31 161 513 0 28 135 520 81 1 518 1950 316 158 0
 163 521 513 522 83 1 519 53 81 1 163 2025 31 158 518 0 166 170 523 81 1 521 194
9 316 130 0 155 153 518 524 83 1 522 52 81 1 155 2030 31 130 521 0 151 112 525 8
1 1 153 1948 316 144 0 151 526 521 527 83 1 524 51 81 1 526 1947 316 147 0 154 5
28 153 529 83 1 527 50 81 1 154 2028 31 147 526 0 172 151 530 81 1 528 1946 316
 127 0 148 531 526 532 83 1 529 49 81 1 148 2023 31 127 528 0 135 166 533 81 1 5
31 1945 316 51 0 172 534 528 535 83 1 532 48 81 1 172 2027 31 51 531 0 170 154 5
36 81 1 534 1944 316 167 0 170 537 531 538 83 1 535 47 81 1 170 2026 31 167 534
 0 163 172 539 81 1 537 1943 316 137 0 166 474 534 540 83 1 538 46 81 1 166 2024
 31 137 537 0 148 163 541 81 1 474 1942 316 124 0 135 464 537 542 83 1 540 45 81
 1 135 2022 31 124 474 0 34 148 543 83 1 542 44 82 3 543 4 25 1 82 3 541 4 27 1
 82 3 539 4 29 1 82 3 536 4 30 1 82 3 533 4 26 1 82 3 530 4 31 1 82 3 525 4 33 1
 82 3 523 4 28 1 82 3 520 4 24 1 83 3 511 .615686274509804 .811764705882353 .929
411764705882 83 1 510 58 83 1 508 57 83 3 504 .615686274509804 .811764705882353
 .929411764705882 83 1 503 55 83 3 500 .615686274509804 .811764705882353 .929411
764705882 83 1 499 61 15 497 911 0 216 294 0 50 498 933 0 294 278 19 0 +.0240584
3153364915 -477048955893622e-32 .005 1 0 0 0 0 -1 51 278 931 0 258 271 498 0 --.
0118297691119798 .1981341966483465 .005 0 0 -1 .195548683984778 -1 0 0 51 19 937
 0 251 498 6 0 --.03530745 0 .005 0 0 -1 .004 -1 0 0 17 216 0 497 544 25 68 545
 213 0 231 +17 544 0 497 546 216 90 71 26 0 201 -17 25 0 497 216 546 72 97 10 0
 545 +17 545 0 547 231 231 72 216 213 0 285 -17 231 0 547 545 545 68 285 228 0 0
 +15 547 745 0 231 141 548 17 285 0 280 97 71 72 231 228 0 0 -17 97 0 280 201 28
5 94 25 10 0 546 -17 71 0 280 285 201 68 544 26 0 216 +17 201 0 280 71 97 90 549
 198 0 0 +17 549 0 550 93 93 94 201 198 0 0 -15 550 485 0 549 264 551 17 93 0 55
0 549 549 90 546 184 0 544 +17 546 0 497 25 544 94 93 184 0 549 -15 551 1192 0 5
52 264 0 17 552 0 551 552 552 0 175 136 0 0 -17 175 0 297 175 175 0 552 136 0 0
 +15 297 1225 0 175 291 553 15 553 1226 0 554 291 0 17 554 0 553 554 554 0 478 2
0 0 0 -17 478 0 548 478 478 0 554 20 0 0 +15 548 1184 0 478 141 0 83 3 494 .6156
86274509804 .811764705882353 .929411764705882 83 1 493 56 83 3 487 .615686274509
804 .811764705882353 .929411764705882 83 1 486 60 15 484 923 0 179 18 555 17 179
 0 484 179 179 0 556 176 0 0 +15 555 925 0 557 18 0 17 557 0 555 557 557 0 208 2
05 0 0 -17 208 0 142 208 208 0 557 205 0 0 +15 142 742 0 208 141 547 17 556 0 26
5 556 556 0 179 176 0 0 -15 265 590 0 556 264 550 83 1 479 42 83 1 475 43 83 3 4
63 .615686274509804 .811764705882353 .929411764705882 82 3 454 4 18 0 82 3 452 4
 16 0 83 1 443 21 83 1 439 24 83 1 436 25 83 1 433 15 83 1 430 14 83 1 427 13 83
 1 424 12 83 1 421 11 83 1 418 10 83 1 415 41 83 1 412 40 83 1 409 39 83 1 406 3
8 83 1 403 37 83 1 400 36 83 1 397 35 83 1 394 34 83 3 391 .615686274509804 .811
764705882353 .929411764705882 83 1 390 63 83 1 387 4 83 1 383 5 83 1 380 6 83 1
 377 7 83 1 374 8 83 1 371 9 83 1 366 26 83 1 363 27 83 1 360 28 83 1 357 29 83
 1 354 30 83 1 351 31 83 1 348 32 83 1 345 33 83 3 340 .615686274509804 .8117647
05882353 .929411764705882 83 1 338 62 80 1 332 558 559 8038 0 0 0 0 0 0 0 0 0 TT
TTTTTTTTTTTFTF10 81 1 13 2039 558 1 329 2 0 0 560 98 255 6 333 80 97 114 116 32
 49 80 1 558 561 562 8017 0 0 0 0 0 0 0 0 0 TTTTTTTTTTTTTFTF3 84 255 6 560 Part
 179 255 13 562 SDL/TYSA_NAME79 14 559 SDL/TYSA_UNAME79 18 328 BTI/importMaxCoun
t83 1 322 66 79 13 320 BTI/importTag79 9 315 BTI/DetId83 3 310 .615686274509804
 .811764705882353 .929411764705882 82 3 309 4 12 2 79 15 305 SDL/TYSA_COLOUR83 3
 284 .615686274509804 .811764705882353 .929411764705882 83 3 276 .61568627450980
4 .811764705882353 .929411764705882 17 101 0 263 266 253 98 249 180 0 252 +17 25
3 0 263 101 39 63 190 187 0 0 -17 39 0 263 253 262 58 29 40 0 0 -82 3 247 4 21 1
 82 3 156 4 32 1 82 3 120 4 17 0 82 3 46 4 14 0 82 3 35 4 15 0 19 17 950 0 1 0 9
 5 0 S0 74 4 CI16 index_map_offset0 0 1 dCCZ20 15 7 0 0 317 323 308 329 13 2 301
 0 0 0 0 0 0 0 0 0 0 0 0 0 80 1 12 272 563 8040 0 0 0 0 3 5 0 0 0 TTTFFFFFFFFFFF
FF2 83 3 14 .615686274509804 .811764705882353 .929411764705882 79 17 563 SDL/TYS
A_COLOUR_21 0 
