**ABCDEFGHIJKLMNOPQRSTUVWXYZabcdefghijklmnopqrstuvwxyz**************************
**PARASOLID !"#$%&'()*+,-./:;<=>?@[\]^_`{|}~0123456789**************************
**PART1;
MC=unknown;
MC_MODEL=unknown;
MC_ID=unknown;
OS=unknown;
OS_RELEASE=unknown;
FRU=Parasolid 34.1.198;
APPL=Onshape;
SITE=unknown;
USER=unknown;
FORMAT=text;
GUISE=transmit;
KEY=BTGapi::writeModels_.xmt;
FILE=BTGapi::writeModels_.xmt;
DATE=2022-05-28T15:22:37 (UTC);
**PART2;
SCH=SCH_3401198_34101;
USFLD_SIZE=0;
**PART3;
**END_OF_HEADER*****************************************************************
T51 : TRANSMIT FILE created by modeller version 340119823 SCH_3401198_34101_1300
6231 0 12 36 CCCI7 lattice222 0 CCCI4 mesh1006 0 I8 polyline1008 0 CCCCCCCDI5 ow
ner1040 0 CCCI16 boundary_lattice222 0 CCCI13 boundary_mesh1006 0 I17 boundary_p
olyline1008 0 CCCA16 index_map_offset0 0 1 dA9 index_map82 0 A17 node_id_index_m
ap82 0 A20 schema_embedding_map82 0 A5 child12 0 A14 lowest_node_id0 0 1 dA16 me
sh_offset_data206 0 Z1 514 2 3 0 0 0 0 0 0 0 1e3 1e-8 0 4 0 1 0 1 1 5 0 6 7 0 0
 0 8 9 0 0 0 0 0 0 0 0 81 255 1 2 503 10 1 11 0 0 0 12 70 11 CI9 list_type0 0 1
 uI10 notransmit0 0 1 lCCCDCCDI12 finger_index0 0 1 dI12 finger_block1012 0 CZ3
 0 4 T1 0 0 7 20 1 13 13 13 255 5 62 0 1 0 14 0 0 15 0 51 255 6 61 0 14 16 0 17
 -0 159204083889156e-32 .0195 0 0 -1 .026 -1 0 0 38 12 CCCCCCCCCCCA17 intersecti
on_data204 0 Z7 337 0 18 19 0 0 +16 20 21 22 22 23 19 9 CCCCCCI5 frame230 0 CA5
 owner12 0 Z8 19 0 1 15 0 24 0 V0 16 255 9 41 25 ?26 0 27 28 0 0 1 81 1 25 479 2
9 9 30 0 31 32 33 17 255 26 0 34 26 26 0 35 9 0 0 +16 27 45 32 ?36 9 37 38 0 0 1
 31 255 28 50 0 9 38 19 0 +0 166858126383827e-32 0 0 0 1 1 0 0 .02725 31 38 51 0
 27 39 28 0 +0 159204083889156e-32 0 0 0 1 1 0 0 .026 38 19 330 0 40 28 7 0 +16
 20 41 42 42 43 16 40 371 44 ?45 18 0 19 0 0 1 51 16 60 0 46 47 6 48 -0 16685812
6383827e-32 .0195 0 0 -1 .02725 -1 0 0 51 20 415 0 49 0 50 51 +-153080849893419e
-33 .0418 .01 0 -1 0 .0025 0 0 -1 40 255 20 41 0 1 20 .0001417309975408458 .3386
38979098548 ??-153080849893419e-33 -.02725 .0075 -.000825547806454607 -.02723749
20067773 .00764023924533482 -.00155799607211946 -.0272054249781043 .008044840610
2672 -.002116962605436625 -.0271676456345997 .00867016191693012 -.00243807908794
861 -.02714071241439525 .00944703493699179 -.002483767006192145 -.02713656944897
33 .01028443181775482 -.002251174921272305 -.0271568538581669 .011087295485981 -
.001766371900393025 -.02719269075155125 .01176916090548654 -.00108091376880966 -
.0272285534948957 .012254246087808 -.000272888392131148 -.027248633579052 .01248
50617548544 .000563185500757412 -.0272441796002694 .01243573851054184 .001334474
057491344 -.0272173047708601 .01211404328004006 .00195789321368012 -.02717957236
903895 .01155455915417372 .002362415501976035 -.02714740306172995 .0108179199202
9984 .002499978498673425 -.02713508075363275 .00998963148175638 .002356603721258
85 -.02714790818646895 .00916548283364034 .001949743362691885 -.0271801582191796
5 .00843523138463256 .001322446807881824 -.0272178918074182 .0078784122831419 .0
0054446104581147 -.02724456023079825 .00756000775214472 -373234144171759e-33 -.0
2725 .0075 41 3 CI8 term_use0 0 1 cCZ1 42 H?-373234144171759e-33 -.02725 .0075 2
04 2 17 INTERSECTION_DATA17 Intersection data7 uv_type0 0 1 u6 values0 1 1 fT80
 43 4 4.71238898038469 .012 0 .06905 4.74268894885885 .01185976075466518 5.94664
959653673 .0690374920067773 4.7695943433798 .0114551593897328 5.61035950612386 .
0690054249781043 4.79015403725901 .01082983808306988 5.27327329857142 .068967645
6345997 4.80197957394887 .0100529650630082 4.93541943068482 .0689407124143952 4.
80366307414948 .00921556818224518 4.59836936232227 .0689365694489733 4.795095161
20957 .00841270451401902 4.26244155328723 .0689568538581669 4.77725544730968 .00
773083909451347 3.926201967139675 .0689926907515513 4.75206595021246 .0072457539
1219199 3.58870717655221 .0690285534948957 4.72240340069482 .00701493824514559 3
.250965943347565 .069048633579052 4.69172015096775 .00706426148945815 2.91436819
2101745 .0690441796002694 4.66339786018243 .00738595671995993 2.57851690731639 .
0690173047708601 4.64047772590775 .00794544084582628 2.241865485448765 .06897957
23690389 4.6255858675174 .00868208007970015 1.90410137466461 .0689474030617299 4
.62051746634841 .00951036851824362 1.56664890760744 .0689350807536328 4.62579994
790708 .01033451716635966 1.2304571149011 .068947908186469 4.64077757474213 .011
06476861536744 .894501790722347 .0689801582191797 4.66383975256713 .011621587716
8581 .557396678718528 .0690178918074182 4.69240742889956 .0119399922478553 .2195
438229032125 .0690445602307983 4.71238898038469 .012 0 .06905 14 255 49 385 52 ?
0 53 54 5 20 -53 53 0 53 24 50 255 50 304 0 55 20 56 0 +0 0 .0375 0 0 1 1 0 0 14
1 255 51 19 57 58 20 141 57 59 60 51 20 141 58 7 51 60 20 141 60 61 58 57 20 38
 61 419 0 62 0 59 0 +6 20 63 64 64 65 16 62 362 66 ?67 68 18 61 0 0 1 38 59 418
 0 68 61 69 0 +6 20 70 71 71 72 40 20 63 0 1 20 .000141810553788355 .33876602075
0378 ??-153080849893419e-33 -.026 .0075 -.000825354882626877 -.0259868964926119
 .00764017176096989 -.00155762935573764 -.02595330019072995 .00804454844341663 -
.002116675020758395 -.02591369689674745 .00866970422217559 -.002437986038483225
 -.02588544425108755 .00944662483235975 -.00248382344252157 -.02588108616550665
 .01028393856092524 -.002251544937636315 -.02590232702661685 .01108652905796592
 -.00176717254293484 -.0259398747337665 .01176836116319524 -.001081908360725172
 -.0259774801375921 .012253768909847 -.000273891601271667 -.0259985573328743 .01
248495138599386 .000562022158554631 -.0259939248881983 .01243600720304632 .00133
3150188909662 -.0259657988626156 .0121148783827469 .001956805830576305 -.0259262
5910040675 .011555927678725 .00236187395423628 -.0258924999068128 .0108194824124
411 .00249998471438978 -.02587953006582265 .00999125769953266 .00235724091869436
 -.02589292210723295 .00916728441155881 .001951159034075305 -.02592668467860375
 .00843699698536877 .00132442889596643 -.02596624516751565 .00787964906217646 .0
00546624013164423 -.02599425325313715 .00756049140435373 -1790166659410275e-34 -
.026 .0075 41 1 64 H?-1790166659410275e-34 -.026 .0075 204 80 65 4 4.71238898038
469 .012 0 .0678 4.74413873288439 .01185982823903012 5.9467313510403 .0677868964
926119 4.77233369588914 .01145545155658338 5.61054705553022 .06775330019073 4.79
388975461216 .0108302957778244 5.27348951677107 .0677136968967474 4.806295631992
57 .01005337516764024 4.93558764198653 .0676854442510875 4.80806655972097 .00921
606143907475 4.59856795229584 .0676810861655067 4.7990954652048 .008413470942034
09 4.262781982197615 .0677023270266168 4.78040959599087 .00773163883680476 3.926
654624402355 .0677398747337665 4.75401285859396 .00724623109015299 3.58914843147
2565 .0677774801375921 4.72292346758507 .00701504861400613 3.25136964816623 .067
7985573328743 4.69077105975656 .00706399279695367 2.91484577950021 .067793924888
1983 4.66109147841617 .0073851216172531 2.579143009497515 .0677657988626156 4.63
705598467097 .00794407232127499 2.242564657712105 .0677262591004067 4.6214222689
6422 .0086805175875589 1.904762846447305 .0676924999068128 4.61608693895658 .009
50874230046734 1.567299399480935 .0676795300658226 4.62160120100143 .01033271558
84412 1.231221492163548 .067692922107233 4.63727378509143 .01106300301463122 .89
5407017480701 .0677266846786037 4.66142735169149 .01162035093782354 .55833119856
9807 .0677662451675156 4.69136343077206 .01193950859564626 .2204303755571235 .06
77942532531372 4.71238898038469 .012 0 .0678 16 68 365 73 ?74 75 62 59 0 0 1 31
 69 308 0 76 59 77 0 +0 288708451934556e-32 .0375 0 0 1 1 0 0 .0198996683183373
 40 20 70 0 1 20 .000141810553788355 .338766020750378 ??-153080849893419e-33 .02
6 .0075 .000825354882626877 .0259868964926119 .00764017176096989 .00155762935573
764 .02595330019072995 .00804454844341663 .002116675020758395 .02591369689674745
 .00866970422217559 .002437986038483225 .02588544425108755 .00944662483235975 .0
0248382344252157 .02588108616550665 .01028393856092524 .002251544937636315 .0259
0232702661685 .01108652905796592 .00176717254293484 .0259398747337665 .011768361
16319524 .001081908360725172 .0259774801375921 .012253768909847 .000273891601271
6665 .0259985573328743 .01248495138599386 -.000562022158554631 .0259939248881983
 .01243600720304632 -.001333150188909662 .0259657988626156 .0121148783827469 -.0
01956805830576305 .02592625910040675 .011555927678725 -.00236187395423628 .02589
24999068128 .0108194824124411 -.00249998471438978 .02587953006582265 .0099912576
9953266 -.00235724091869436 .02589292210723295 .0091672844115588 -.0019511590340
75305 .02592668467860375 .00843699698536877 -.001324428895966432 .02596624516751
565 .00787964906217647 -.000546624013164424 .02599425325313715 .0075604914043537
3 -139464413502956e-33 .026 .0075 41 1 71 H?-139464413502956e-33 .026 .0075 204
 80 72 4 1.570796326794895 .012 0 .0158 1.6025460792946 .01185982823903012 .3364
53956139289 .0158131035073881 1.630741042299345 .01145545155658338 .672638251649
369 .01584669980927005 1.65229710102237 .0108302957778244 1.00969579040852 .0158
8630310325255 1.66470297840278 .01005337516764024 1.347597665193056 .01591455574
891245 1.666473906131175 .00921606143907475 1.684617354883745 .01591891383449335
 1.657502811615005 .00841347094203409 2.02040332498197 .01589767297338315 1.6388
1694240107 .00773163883680476 2.356530682777235 .0158601252662335 1.612420205004
17 .00724623109015299 2.694036875707025 .0158225198624079 1.581330813995275 .007
01504861400613 3.03181565901336 .0158014426671257 1.54917840616676 .007063992796
95367 3.368339527679375 .0158060751118017 1.519498824826375 .0073851216172531 3.
704042297682075 .0158342011373844 1.495463331081176 .00794407232127499 4.0406206
4946748 .01587374089959325 1.479829615374422 .0086805175875589 4.378422460732285
 .0159075000931872 1.47449428536679 .00950874230046734 4.71588590769865 .0159204
6993417735 1.48000854741164 .0103327155884412 5.05196381501604 .0159070778927670
5 1.49568113150164 .01106300301463122 5.38777828969889 .01587331532139625 1.5198
34698101695 .01162035093782354 5.72485410860978 .01583375483248435 1.54977077718
2265 .01193950859564626 6.06275493162246 .01580574674686285 1.570796326794895 .0
12 54465745561853e-31 .0158 16 76 260 78 ?79 80 75 69 0 0 1 31 77 307 0 80 69 81
 0 +0 166858126383827e-32 .0375 0 0 1 1 0 0 .02725 16 80 268 82 ?83 84 76 77 0 0
 1 31 81 306 0 75 77 85 0 +0 288708451934556e-32 .0345 0 0 1 1 0 0 .019899668318
3373 16 75 257 86 ?87 76 68 81 0 0 1 31 85 218 0 84 81 88 0 +0 153080849893419e-
32 .0345 0 0 1 1 0 0 .025 16 84 271 89 ?90 91 80 85 0 0 1 31 88 216 0 91 85 39 0
 +0 153080849893419e-32 .0245 0 0 1 1 0 0 .025 16 91 184 92 ?93 37 84 88 0 0 1 3
1 39 10 0 37 88 38 0 +0 159204083889156e-32 .0195 0 0 1 1 0 0 .026 16 37 105 94
 ?95 27 91 39 0 0 1 81 1 94 483 29 37 96 0 97 98 99 17 95 0 100 95 95 0 101 37 0
 0 +15 255 100 56 0 95 14 102 17 101 0 103 101 101 0 95 37 0 0 -15 103 111 0 101
 104 0 14 104 121 105 ?106 107 103 5 108 -0 0 106 107 24 81 1 105 507 109 104 11
0 0 111 112 113 14 106 294 112 ?114 104 115 5 56 -0 0 114 104 24 14 107 34 111 ?
104 46 116 5 47 -0 0 104 46 24 50 108 129 0 104 117 47 0 +0 0 .0195 0 0 1 1 0 0
 13 24 20 0 0 0 0 0 0 8 14 14 14 57 118 ?46 0 119 5 6 +0 0 46 0 24 81 1 118 504
 109 14 97 0 0 120 121 14 46 53 120 ?107 14 122 5 16 -0 0 107 14 24 15 119 349 0
 123 14 124 17 123 0 119 123 123 0 74 68 0 0 -15 124 343 0 125 14 100 17 125 0 1
24 125 125 0 67 62 0 0 -17 67 0 126 67 67 0 125 62 0 0 +15 126 393 0 67 53 127 1
4 53 400 128 ?49 129 126 5 20 -49 49 49 129 24 15 127 394 0 130 53 0 17 130 0 12
7 130 130 0 45 40 0 0 -17 45 0 131 45 45 0 130 40 0 0 +15 131 328 0 45 46 34 15
 34 54 0 26 46 132 15 132 287 0 133 46 0 17 133 0 132 133 133 0 83 80 0 0 -17 83
 0 134 83 83 0 133 80 0 0 +15 134 293 0 83 55 0 14 55 289 135 ?136 114 137 5 50
 +0 0 136 114 24 81 1 135 510 109 55 138 0 139 140 141 14 136 117 140 ?129 55 14
2 5 117 +0 0 129 55 24 14 114 279 139 ?55 106 143 5 144 +0 0 55 106 24 15 137 29
2 0 145 55 134 17 145 0 137 145 145 0 79 76 0 0 -17 79 0 143 79 79 0 145 76 0 0
 +15 143 282 0 79 114 146 15 146 283 0 147 114 0 17 147 0 146 147 147 0 87 75 0
 0 -17 87 0 115 87 87 0 147 75 0 0 +15 115 277 0 87 106 148 15 148 278 0 149 106
 0 17 149 0 148 149 149 0 90 84 0 0 -17 90 0 150 90 90 0 149 84 0 0 +15 150 192
 0 90 129 151 14 129 189 152 ?53 136 150 5 153 +0 0 53 136 24 15 151 193 0 154 1
29 0 17 154 0 151 154 154 0 93 91 0 0 -17 93 0 142 93 93 0 154 91 0 0 +15 142 16
2 0 93 136 0 81 1 152 512 109 129 155 0 140 128 156 51 153 211 0 129 144 117 0 -
0 153080849893419e-32 .0345 0 0 -1 .025 -1 0 0 51 144 301 0 114 56 153 0 -0 2887
08451934556e-32 .0375 0 0 -1 .0198996683183373 -1 0 0 50 117 130 0 136 153 108 0
 +0 0 .0245 0 0 1 1 0 0 50 56 303 0 106 50 144 0 +0 0 .0345 0 0 1 1 0 0 80 7 CCC
CCDI12 legal_owners0 16 1 lCZ1 109 0 157 8001 0 0 0 0 3 5 0 0 0 FFFFTFTFFFFFFFFF
2 81 1 155 487 29 129 158 152 92 86 159 81 1 140 511 109 136 98 0 135 152 160 81
 1 128 513 109 53 161 0 152 52 162 83 255 3 156 .615686274509804 .81176470588235
3 .929411764705882 81 1 161 500 29 53 163 128 164 0 165 81 1 52 514 109 49 164 0
 128 0 166 83 3 162 .615686274509804 .811764705882353 .929411764705882 81 1 164
 499 29 49 167 52 44 161 168 83 3 166 .615686274509804 .811764705882353 .9294117
64705882 80 1 29 169 170 9000 0 0 0 0 3 6 0 0 0 FFTFTFTTFFFFFFFF1 81 1 167 473 1
71 49 0 164 163 172 173 81 1 44 498 29 40 174 0 175 164 176 82 255 3 168 4 9 2 8
1 1 174 462 171 40 0 44 177 178 179 81 1 175 497 29 18 177 0 73 44 180 82 3 176
 4 11 1 16 18 368 175 ?181 62 40 7 0 0 1 81 1 177 461 171 18 0 175 182 174 183 8
1 1 73 496 29 68 184 0 66 175 185 82 3 180 4 10 1 81 1 184 459 171 68 0 73 186 1
82 187 81 1 66 495 29 62 182 0 188 73 189 82 3 185 4 9 1 81 1 182 460 171 62 0 6
6 184 177 190 81 1 188 494 29 106 191 112 138 66 192 82 3 189 4 8 1 81 1 191 467
 171 106 0 188 193 194 195 81 1 112 508 109 106 188 0 105 139 196 81 1 138 493 2
9 55 197 135 198 188 199 82 3 192 4 8 2 81 1 197 469 171 55 0 138 194 200 201 81
 1 198 492 29 114 194 139 89 138 202 82 3 199 4 7 2 81 1 194 468 171 114 0 198 1
91 197 203 81 1 139 509 109 114 198 0 112 135 204 81 1 89 491 29 84 205 0 82 198
 206 82 3 202 4 6 2 81 1 205 455 171 84 0 89 207 208 209 81 1 82 490 29 80 208 0
 78 89 210 82 3 206 4 7 1 81 1 208 456 171 80 0 82 205 211 212 81 1 78 489 29 76
 211 0 86 82 213 82 3 210 4 6 1 81 1 211 457 171 76 0 78 208 186 214 81 1 86 488
 29 75 186 0 155 78 215 82 3 213 4 5 1 81 1 186 458 171 75 0 86 211 184 216 82 3
 215 4 4 1 80 1 171 217 218 9000 0 0 0 0 3 5 0 0 0 FFTFTFTTFFFFFFFF2 83 1 216 7
 79 255 13 218 BTI/importTag83 1 214 6 83 1 212 5 81 1 207 454 171 91 0 92 96 20
5 219 83 1 209 4 81 1 92 486 29 91 207 0 110 155 220 81 1 96 453 171 37 0 94 221
 207 222 83 1 219 3 81 1 221 452 171 27 0 32 30 96 223 83 1 222 2 81 1 32 480 29
 27 221 0 25 224 225 81 1 30 451 171 9 0 25 0 221 226 83 1 223 1 83 1 226 0 81 1
 224 481 29 46 227 120 32 97 228 82 3 225 4 1 1 81 1 227 464 171 46 0 224 178 22
9 230 81 1 120 505 109 46 224 0 118 111 231 81 1 97 482 29 14 178 118 224 94 232
 82 3 228 4 1 2 81 1 178 463 171 14 0 97 174 227 233 82 3 232 4 2 2 83 1 233 12
 81 1 111 506 109 107 31 0 120 105 234 83 3 231 .615686274509804 .81176470588235
3 .929411764705882 81 1 31 478 29 107 229 111 235 25 236 83 3 234 .6156862745098
04 .811764705882353 .929411764705882 81 1 229 465 171 107 0 31 227 193 237 81 1
 235 477 29 1 238 239 0 31 240 82 3 236 4 0 2 81 1 238 475 241 1 172 235 0 0 242
 81 1 239 501 243 1 235 11 0 0 244 82 3 240 4 0 3 80 1 243 245 246 8038 0 0 0 0
 0 0 0 0 0 TTTTTTTTTTTTTFTF10 81 1 11 502 245 1 239 2 0 0 247 98 255 6 244 80 97
 114 116 32 49 80 1 245 248 249 8017 0 0 0 0 0 0 0 0 0 TTTTTTTTTTTTTFTF3 84 255
 6 247 Part 179 13 249 SDL/TYSA_NAME79 14 246 SDL/TYSA_UNAME80 1 241 171 250 900
0 0 0 0 0 3 5 0 0 0 FFTFTFTTFFFFFFFF2 81 1 172 474 171 1 0 238 167 0 251 83 1 24
2 22 83 1 251 -1 79 18 250 BTI/importMaxCount81 1 193 466 171 104 0 110 229 191
 252 83 1 237 14 81 1 110 485 29 104 193 105 98 92 253 83 1 252 15 81 1 98 484 2
9 136 200 140 94 110 254 82 3 253 4 4 2 81 1 200 470 171 136 0 98 197 158 255 82
 3 254 4 3 2 81 1 158 471 171 129 0 155 200 163 256 83 1 255 19 81 1 163 472 171
 53 0 161 158 167 257 83 1 256 20 83 1 257 21 83 1 230 13 82 3 220 4 3 1 83 3 20
4 .615686274509804 .811764705882353 .929411764705882 83 1 203 17 83 1 201 18 83
 3 196 .615686274509804 .811764705882353 .929411764705882 83 1 195 16 83 1 190 9
 83 1 187 8 83 1 183 10 17 181 0 122 181 181 0 258 18 0 0 +15 122 335 0 181 46 1
31 17 258 0 259 258 258 0 181 18 0 0 -15 259 389 0 258 49 0 83 1 179 11 83 1 173
 22 79 9 170 BTI/DetId82 3 165 4 10 2 83 3 160 .615686274509804 .811764705882353
 .929411764705882 82 3 159 4 5 2 79 15 157 SDL/TYSA_COLOUR83 3 141 .615686274509
804 .811764705882353 .929411764705882 17 74 0 54 74 74 0 123 68 0 0 +15 54 388 0
 74 49 259 83 3 121 .615686274509804 .811764705882353 .929411764705882 50 47 49
 0 107 108 16 0 +0 0 0 0 0 1 1 0 0 15 116 39 0 36 107 260 17 36 0 116 36 36 0 26
1 27 0 0 +15 260 40 0 35 107 0 17 35 0 260 35 35 0 26 9 0 0 -17 261 0 102 261 26
1 0 36 27 0 0 -15 102 58 0 261 14 0 83 3 113 .615686274509804 .811764705882353 .
929411764705882 82 3 99 4 2 1 141 48 19 262 262 16 141 262 7 48 48 16 82 3 33 4
 0 1 19 15 63 0 1 0 8 5 0 S0 40 20 21 0 1 20 .0001417309975408458 .3386389790985
48 ??-153080849893419e-33 .02725 .0075 .000825547806454607 .0272374920067773 .00
764023924533482 .00155799607211946 .0272054249781043 .0080448406102672 .00211696
2605436625 .0271676456345997 .00867016191693012 .00243807908794861 .027140712414
39525 .00944703493699179 .002483767006192145 .0271365694489733 .0102844318177548
2 .002251174921272305 .0271568538581669 .011087295485981 .001766371900393025 .02
719269075155125 .01176916090548654 .00108091376880966 .0272285534948957 .0122542
46087808 .000272888392131148 .027248633579052 .0124850617548544 -.00056318550075
7413 .0272441796002694 .01243573851054184 -.001334474057491344 .0272173047708601
 .01211404328004006 -.00195789321368012 .02717957236903895 .01155455915417372 -.
002362415501976035 .02714740306172995 .01081791992029984 -.002499978498673425 .0
2713508075363275 .00998963148175638 -.00235660372125885 .02714790818646895 .0091
6548283364034 -.00194974336269189 .02718015821917965 .00843523138463256 -.001322
446807881824 .0272178918074182 .0078784122831419 -.00054446104581147 .0272445602
3079825 .00756000775214472 164867347870835e-33 .02725 .0075 41 1 22 H?1648673478
70835e-33 .02725 .0075 204 80 23 4 1.570796326794895 .012 0 .01455 1.60109629526
906 .01185976075466518 .3365357106428615 .01456250799322268 1.62800168979 .01145
51593897328 .672825801055729 .01459457502189572 1.64856138366922 .01082983808306
988 1.00991200860817 .01463235436540032 1.660386920359075 .0100529650630082 1.34
7765876494764 .01465928758560476 1.66207042055969 .00921556818224518 1.684815944
85731 .0146634305510267 1.65350250761977 .00841270451401902 2.020743753892355 .0
146431461418331 1.63566279371989 .00773083909451347 2.356983340039915 .014607309
24844872 1.61047329662267 .00724575391219199 2.694478130627375 .0145714465051042
8 1.580810747105025 .00701493824514559 3.032219363832025 .014551366420948 1.5501
2749737796 .00706426148945815 3.36881711507784 .01455582039973058 1.521805206592
635 .00738595671995993 3.704668399863195 .01458269522913992 1.498885072317952 .0
0794544084582628 4.04131982173082 .01462042763096104 1.483993213927606 .00868208
007970015 4.379083932514975 .01465259693827006 1.478924812758614 .00951036851824
362 4.71653639957215 .01466491924636724 1.48420729431729 .01033451716635966 5.05
272819227849 .01465209181353102 1.499184921152336 .01106476861536744 5.388683516
45724 .01461984178082034 1.522247098977335 .0116215877168581 5.72578862846106 .0
145821081925818 1.550814775309765 .0119399922478553 6.06364148427637 .0145554397
6920174 1.570796326794895 .012 1271792791057014e-31 .01455 141 17 61 263 263 6 1
41 263 59 17 17 6 74 4 CI16 index_map_offset0 0 1 dCCZ20 13 7 0 0 172 238 161 23
9 11 2 52 0 0 0 0 0 0 0 0 0 0 0 0 0 80 1 10 109 264 8040 0 0 0 0 3 5 0 0 0 TTTFF
FFFFFFFFFFF2 83 3 12 .615686274509804 .811764705882353 .929411764705882 79 17 26
4 SDL/TYSA_COLOUR_21 0 
