**ABCDEFGHIJKLMNOPQRSTUVWXYZabcdefghijklmnopqrstuvwxyz**************************
**PARASOLID !"#$%&'()*+,-./:;<=>?@[\]^_`{|}~0123456789**************************
**PART1;
MC=unknown;
MC_MODEL=unknown;
MC_ID=unknown;
OS=unknown;
OS_RELEASE=unknown;
FRU=Parasolid 34.1.198;
APPL=Onshape;
SITE=unknown;
USER=unknown;
FORMAT=text;
GUISE=transmit;
KEY=BTGapi::writeModels_.xmt;
FILE=BTGapi::writeModels_.xmt;
DATE=2022-05-28T15:21:37 (UTC);
**PART2;
SCH=SCH_3401198_34101;
USFLD_SIZE=0;
**PART3;
**END_OF_HEADER*****************************************************************
T51 : TRANSMIT FILE created by modeller version 340119823 SCH_3401198_34101_1300
6231 0 12 36 CCCI7 lattice222 0 CCCI4 mesh1006 0 I8 polyline1008 0 CCCCCCCDI5 ow
ner1040 0 CCCI16 boundary_lattice222 0 CCCI13 boundary_mesh1006 0 I17 boundary_p
olyline1008 0 CCCA16 index_map_offset0 0 1 dA9 index_map82 0 A17 node_id_index_m
ap82 0 A20 schema_embedding_map82 0 A5 child12 0 A14 lowest_node_id0 0 1 dA16 me
sh_offset_data206 0 Z1 111 2 3 0 0 0 0 0 0 0 1e3 1e-8 0 4 0 1 0 1 1 5 0 6 7 0 0
 0 8 9 0 0 0 0 0 0 0 0 81 255 1 2 107 10 1 11 0 0 0 12 70 11 CI9 list_type0 0 1
 uI10 notransmit0 0 1 lCCCDCCDI12 finger_index0 0 1 dI12 finger_block1012 0 CZ3
 0 4 T1 0 0 7 20 1 13 13 13 255 5 62 0 1 0 14 0 0 15 0 51 255 6 61 0 14 16 0 0 -
0 2449293598294705e-34 .007 0 0 -1 .004 -1 0 0 31 255 7 50 0 17 18 0 0 +0 673555
739531044e-33 0 0 0 1 1 0 0 .011 19 9 CCCCCCI5 frame230 0 CA5 owner12 0 Z8 19 0
 1 15 0 19 0 V0 16 255 9 13 20 ?21 0 22 23 0 0 1 81 1 20 99 24 9 25 0 26 27 28 1
7 255 21 0 29 21 21 0 30 9 0 0 +16 22 8 26 ?31 9 17 32 0 0 1 31 23 15 0 9 32 18
 0 +0 673555739531044e-33 .007 0 0 1 1 0 0 .011 31 32 10 0 22 0 23 0 +0 24492935
98294705e-34 .007 0 0 1 1 0 0 .004 31 18 51 0 33 23 7 0 +0 2449293598294705e-34
 0 0 0 1 1 0 0 .004 16 33 45 34 ?35 17 0 18 0 0 1 81 1 34 102 24 33 36 0 37 38 3
9 17 35 0 40 35 35 0 41 33 0 0 +16 17 41 37 ?42 22 33 7 0 0 1 81 1 37 101 24 17
 43 0 27 34 44 17 42 0 45 42 42 0 46 17 0 0 +15 255 45 54 0 42 47 0 17 46 0 48 4
6 46 0 42 17 0 0 -15 48 40 0 46 49 0 14 255 49 34 50 ?0 51 40 5 52 -0 0 0 51 19
 81 1 50 111 53 49 27 0 54 0 55 14 51 1 54 ?49 47 56 5 57 +0 0 49 47 19 15 40 39
 0 35 49 48 50 255 52 49 0 49 57 16 0 +0 0 0 0 0 1 1 0 0 13 19 20 0 0 0 0 0 0 8
 14 14 14 57 58 ?47 0 59 5 6 +0 0 47 0 19 81 1 58 108 53 14 60 0 0 61 62 14 47 5
3 61 ?51 14 63 5 16 -0 0 51 14 19 15 59 56 0 31 14 64 17 31 0 59 31 31 0 65 22 0
 0 +15 64 58 0 41 14 0 17 41 0 64 41 41 0 35 33 0 0 -17 65 0 56 65 65 0 31 22 0
 0 -15 56 6 0 65 51 29 15 29 7 0 21 51 0 81 1 61 109 53 47 38 0 58 54 66 15 63 5
2 0 30 47 45 51 16 60 0 47 52 6 0 -0 673555739531044e-33 .007 0 0 -1 .011 -1 0 0
 17 30 0 63 30 30 0 21 9 0 0 -80 7 CCCCCDI12 legal_owners0 16 1 lCZ1 53 0 67 800
1 0 0 0 0 3 5 0 0 0 FFFFTFTFFFFFFFFF2 81 1 38 103 24 47 68 61 34 60 69 81 1 54 1
10 53 51 70 0 61 50 71 83 255 3 66 .615686274509804 .811764705882353 .9294117647
05882 81 1 70 97 24 51 72 54 73 26 74 83 3 71 .615686274509804 .811764705882353
 .929411764705882 80 1 24 75 76 9000 0 0 0 0 3 6 0 0 0 FFTFTFTTFFFFFFFF1 81 1 72
 91 77 51 0 70 68 78 79 81 1 73 96 24 1 80 81 0 70 82 81 1 26 98 24 22 83 0 70 2
0 84 82 255 3 74 4 0 2 81 1 83 86 77 22 0 26 25 43 85 82 3 84 4 0 1 80 1 77 86 8
7 9000 0 0 0 0 3 5 0 0 0 FFTFTFTTFFFFFFFF2 81 1 25 85 77 9 0 20 0 83 88 81 1 43
 87 77 17 0 37 83 36 89 83 1 85 1 81 1 36 88 77 33 0 34 43 90 91 83 1 89 2 81 1
 90 89 77 14 0 60 36 68 92 83 1 91 3 81 1 60 104 24 14 90 58 38 0 93 81 1 68 90
 77 47 0 38 90 72 94 83 1 92 4 83 1 94 5 82 3 93 4 3 2 83 1 88 0 79 255 13 87 BT
I/importTag81 1 80 94 95 1 96 73 0 0 97 81 1 81 105 98 1 73 11 0 0 99 82 3 82 4
 0 3 80 1 98 100 101 8038 0 0 0 0 0 0 0 0 0 TTTTTTTTTTTTTFTF10 81 1 11 106 100 1
 81 2 0 0 102 98 255 6 99 80 97 114 116 32 49 80 1 100 103 104 8017 0 0 0 0 0 0
 0 0 0 TTTTTTTTTTTTTFTF3 84 255 6 102 Part 179 13 104 SDL/TYSA_NAME79 14 101 SDL
/TYSA_UNAME80 1 95 77 105 9000 0 0 0 0 3 5 0 0 0 FFTFTFTTFFFFFFFF2 81 1 96 93 77
 1 0 80 78 0 106 83 1 97 7 81 1 78 92 77 49 0 27 72 96 107 83 1 106 -1 81 1 27 1
00 24 49 78 50 20 37 108 83 1 107 7 82 3 108 4 1 2 79 18 105 BTI/importMaxCount8
3 1 79 6 79 9 76 BTI/DetId82 3 69 4 2 2 79 15 67 SDL/TYSA_COLOUR83 3 62 .6156862
74509804 .811764705882353 .929411764705882 50 57 3 0 51 0 52 0 +0 0 .007 0 0 1 1
 0 0 83 3 55 .615686274509804 .811764705882353 .929411764705882 82 3 44 4 2 1 82
 3 39 4 3 1 82 3 28 4 1 1 19 15 63 0 1 0 8 5 0 S0 74 4 CI16 index_map_offset0 0
 1 dCCZ20 13 7 0 0 96 80 60 81 11 2 50 0 0 0 0 0 0 0 0 0 0 0 0 0 80 1 10 53 109
 8040 0 0 0 0 3 5 0 0 0 TTTFFFFFFFFFFFFF2 83 3 12 .615686274509804 .811764705882
353 .929411764705882 79 17 109 SDL/TYSA_COLOUR_21 0 
