**ABCDEFGHIJKLMNOPQRSTUVWXYZabcdefghijklmnopqrstuvwxyz**************************
**PARASOLID !"#$%&'()*+,-./:;<=>?@[\]^_`{|}~0123456789**************************
**PART1;
MC=unknown;
MC_MODEL=unknown;
MC_ID=unknown;
OS=unknown;
OS_RELEASE=unknown;
FRU=Parasolid 34.1.198;
APPL=Onshape;
SITE=unknown;
USER=unknown;
FORMAT=text;
GUISE=transmit;
KEY=BTGapi::writeModels_.xmt;
FILE=BTGapi::writeModels_.xmt;
DATE=2022-05-28T15:21:28 (UTC);
**PART2;
SCH=SCH_3401198_34101;
USFLD_SIZE=0;
**PART3;
**END_OF_HEADER*****************************************************************
T51 : TRANSMIT FILE created by modeller version 340119823 SCH_3401198_34101_1300
6231 0 12 36 CCCI7 lattice222 0 CCCI4 mesh1006 0 I8 polyline1008 0 CCCCCCCDI5 ow
ner1040 0 CCCI16 boundary_lattice222 0 CCCI13 boundary_mesh1006 0 I17 boundary_p
olyline1008 0 CCCA16 index_map_offset0 0 1 dA9 index_map82 0 A17 node_id_index_m
ap82 0 A20 schema_embedding_map82 0 A5 child12 0 A14 lowest_node_id0 0 1 dA16 me
sh_offset_data206 0 Z1 278 2 3 0 0 0 0 0 0 0 1e3 1e-8 0 4 0 1 0 1 1 5 0 6 7 0 0
 0 8 9 0 0 0 0 0 0 0 0 81 255 1 2 274 10 1 11 0 0 0 12 70 11 CI9 list_type0 0 1
 uI10 notransmit0 0 1 lCCCDCCDI12 finger_index0 0 1 dI12 finger_block1012 0 CZ3
 0 4 T1 0 0 7 20 1 13 13 13 255 5 62 0 1 0 14 0 0 15 0 51 255 6 60 0 14 16 0 0 -
0 459242549680257e-33 .0075 0 0 -1 .0075 -1 0 0 31 255 7 50 0 9 17 0 0 +0 459242
549680257e-33 0 0 0 1 1 0 0 .0075 19 9 CCCCCCI5 frame230 0 CA5 owner12 0 Z8 19 0
 1 15 0 18 0 V0 16 255 9 41 19 ?20 0 21 7 0 0 1 81 1 19 182 22 9 23 0 24 25 26 1
7 255 20 0 27 20 20 0 28 9 0 0 +16 21 108 25 ?29 9 30 17 0 0 1 81 1 25 185 22 21
 31 0 19 32 33 17 29 0 34 29 29 0 35 21 0 0 +16 30 212 32 ?36 21 37 38 0 0 1 31
 17 145 0 21 38 7 0 +0 2449293598294705e-34 0 0 0 1 1 0 0 .004 31 38 256 0 30 39
 17 0 +0 2449293598294705e-34 .009 0 0 1 1 0 0 .004 31 39 257 0 37 0 38 0 +0 459
242549680257e-33 .009 0 0 1 1 0 0 .0075 16 37 216 40 ?41 30 0 39 0 0 1 81 1 40 2
18 22 37 42 0 32 43 44 17 41 0 45 41 41 0 46 37 0 0 +15 255 45 240 0 41 47 48 17
 46 0 49 46 46 0 41 37 0 0 -15 49 229 0 46 14 0 14 255 14 53 50 ?51 0 27 5 6 -0
 0 51 0 18 81 1 50 275 52 14 53 0 0 54 55 14 51 34 54 ?56 14 57 5 16 -0 0 56 14
 18 15 27 54 0 20 14 49 13 18 20 0 0 0 0 0 0 8 14 81 1 54 276 52 51 24 0 50 58 5
9 14 56 116 58 ?47 51 60 5 61 -0 0 47 51 18 15 57 40 0 28 51 34 50 255 16 49 0 5
1 61 6 0 +0 0 0 0 0 1 1 0 0 51 61 138 0 56 62 16 0 +0 2449293598294705e-34 0 0 0
 1 .004 1 0 0 50 62 253 0 47 0 61 0 +0 0 .009 0 0 1 1 0 0 14 47 236 63 ?0 56 45
 5 62 +0 0 0 56 18 81 1 63 278 52 47 43 0 58 0 64 80 7 CCCCCDI12 legal_owners0 1
6 1 lCZ1 52 0 65 8001 0 0 0 0 3 5 0 0 0 FFFFTFTFFFFFFFFF2 81 1 43 238 22 47 66 6
3 40 67 68 81 1 58 277 52 56 69 0 54 63 70 83 255 3 64 .615686274509804 .8117647
05882353 .929411764705882 81 1 69 271 22 56 0 58 53 0 71 83 3 70 .61568627450980
4 .811764705882353 .929411764705882 80 1 22 72 73 9000 0 0 0 0 3 6 0 0 0 FFTFTFT
TFFFFFFFF1 81 1 53 270 22 14 0 50 67 69 74 82 255 3 71 6 1 2 81 1 67 269 22 1 75
 76 43 53 77 82 3 74 6 0 2 81 1 75 176 78 1 79 67 0 0 80 81 1 76 272 81 1 67 11
 0 0 82 82 3 77 4 0 3 80 1 81 83 84 8038 0 0 0 0 0 0 0 0 0 TTTTTTTTTTTTTFTF10 81
 1 11 273 83 1 76 2 0 0 85 98 255 6 82 80 97 114 116 32 49 80 1 83 86 87 8017 0
 0 0 0 0 0 0 0 0 TTTTTTTTTTTTTFTF3 84 255 6 85 Part 179 255 13 87 SDL/TYSA_NAME7
9 14 84 SDL/TYSA_UNAME80 1 78 88 89 9000 0 0 0 0 3 5 0 0 0 FFTFTFTTFFFFFFFF2 81
 1 79 175 88 1 0 75 90 91 92 83 1 80 7 80 1 88 93 94 9000 0 0 0 0 3 5 0 0 0 FFTF
TFTTFFFFFFFF2 81 1 90 173 88 51 0 24 31 79 95 81 1 91 215 88 30 0 32 79 42 96 83
 1 92 -1 81 1 32 214 22 30 91 0 25 40 97 81 1 42 219 88 37 0 40 91 66 98 83 1 96
 3 81 1 66 239 88 47 0 43 42 0 99 83 1 98 0 83 1 99 5 82 3 97 5 3 1 81 1 24 181
 22 51 90 54 0 19 100 81 1 31 169 88 21 0 25 23 90 101 83 1 95 6 81 1 23 168 88
 9 0 19 0 31 102 83 1 101 2 83 1 102 1 82 3 100 4 1 2 79 13 94 BTI/importTag79 1
8 89 BTI/importMaxCount79 9 73 BTI/DetId82 3 68 5 3 2 79 15 65 SDL/TYSA_COLOUR17
 28 0 57 28 28 0 20 9 0 0 -15 34 129 0 29 51 0 15 60 119 0 35 56 103 17 35 0 60
 35 35 0 29 21 0 0 -15 103 234 0 36 56 0 17 36 0 103 36 36 0 104 30 0 0 +17 104
 0 48 104 104 0 36 30 0 0 -15 48 241 0 104 47 0 83 3 59 .615686274509804 .811764
705882353 .929411764705882 83 3 55 .615686274509804 .811764705882353 .9294117647
05882 82 3 44 5 1 1 82 3 33 4 3 1 82 3 26 4 1 1 19 15 63 0 1 0 8 5 0 S0 74 4 CI1
6 index_map_offset0 0 1 dCCZ20 13 7 0 0 66 75 69 76 11 2 63 0 0 0 0 0 0 0 0 0 0
 0 0 0 80 1 10 52 105 8040 0 0 0 0 3 5 0 0 0 TTTFFFFFFFFFFFFF2 83 3 12 .61568627
4509804 .811764705882353 .929411764705882 79 17 105 SDL/TYSA_COLOUR_21 0 
