**ABCDEFGHIJKLMNOPQRSTUVWXYZabcdefghijklmnopqrstuvwxyz**************************
**PARASOLID !"#$%&'()*+,-./:;<=>?@[\]^_`{|}~0123456789**************************
**PART1;
MC=unknown;
MC_MODEL=unknown;
MC_ID=unknown;
OS=unknown;
OS_RELEASE=unknown;
FRU=Parasolid 34.1.198;
APPL=Onshape;
SITE=unknown;
USER=unknown;
FORMAT=text;
GUISE=transmit;
KEY=BTGapi::writeModels_.xmt;
FILE=BTGapi::writeModels_.xmt;
DATE=2022-05-28T15:21:58 (UTC);
**PART2;
SCH=SCH_3401198_34101;
USFLD_SIZE=0;
**PART3;
**END_OF_HEADER*****************************************************************
T51 : TRANSMIT FILE created by modeller version 340119823 SCH_3401198_34101_1300
6231 0 12 36 CCCI7 lattice222 0 CCCI4 mesh1006 0 I8 polyline1008 0 CCCCCCCDI5 ow
ner1040 0 CCCI16 boundary_lattice222 0 CCCI13 boundary_mesh1006 0 I17 boundary_p
olyline1008 0 CCCA16 index_map_offset0 0 1 dA9 index_map82 0 A17 node_id_index_m
ap82 0 A20 schema_embedding_map82 0 A5 child12 0 A14 lowest_node_id0 0 1 dA16 me
sh_offset_data206 0 Z1 1609 2 3 0 0 0 0 0 0 0 1e3 1e-8 0 4 5 1 0 1 1 6 0 7 8 9 0
 0 10 11 12 0 0 0 0 0 0 0 81 255 1 2 1599 13 1 14 0 0 0 15 70 11 CI9 list_type0
 0 1 uI10 notransmit0 0 1 lCCCDCCDI12 finger_index0 0 1 dI12 finger_block1012 0
 CZ3 0 4 T1 0 0 7 20 1 16 16 13 255 6 487 0 1 0 17 0 0 18 0 51 255 7 1415 0 19 2
0 0 0 +-.00759014453478704 -.01081646533590316 .003 0 0 -1 .01 -1 0 0 30 255 8 1
370 0 11 21 0 0 +-.00930610346963512 -.02066813955574595 .003 0 0 -1 29 255 9 13
57 0 12 22 0 -.00930610346963512 -.02066813955574595 .003 19 9 CCCCCCI5 frame230
 0 CA5 owner12 0 Z10 238 0 1 18 0 23 0 V0 16 255 11 1368 24 ?25 0 26 8 0 0 1 18
 255 12 1354 27 28 0 29 9 ?1 81 1 27 1558 30 12 31 0 32 33 34 17 255 28 0 35 36
 37 12 38 39 0 40 +18 29 1345 41 42 12 43 22 ?1 81 1 41 1556 30 29 44 0 45 32 46
 17 42 0 47 48 49 29 50 51 0 52 +18 43 1331 53 54 29 55 56 ?1 29 22 1348 0 29 56
 9 .001984728010003925 .01914169562300895 .003 29 56 1334 0 43 57 22 -.009306103
46963512 -.02066813955574595 0 29 57 1330 0 55 58 56 .001984728010003925 .019141
69562300895 0 18 55 1327 59 60 43 61 57 ?1 29 58 1316 0 61 62 57 -.0175880862596
027 -.0110193477333419 .003 18 61 1313 63 64 55 65 58 ?1 29 62 1312 0 65 66 58 -
.01243764288812974 .01468498198790074 .003 18 65 1309 67 68 61 69 62 ?1 29 66 13
08 0 69 70 62 -.0175880862596027 -.0110193477333419 0 18 69 1305 71 72 65 73 66
 ?1 29 70 1304 0 73 74 66 -.01243764288812974 .01468498198790074 0 18 73 1301 75
 76 69 77 70 ?1 29 74 1242 0 77 78 70 .01934381976671935 -.0118149139360396 .003
 18 77 1239 79 36 73 80 74 ?1 29 78 1233 0 80 81 74 .01934381976671935 -.0118149
139360396 0 18 80 1230 82 83 77 84 78 ?1 29 81 1224 0 84 85 78 .0207385542314254
5 .000824118397900038 0 18 84 1221 86 87 80 88 81 ?1 29 85 1220 0 88 0 81 .02073
855423142545 .000824118397900038 .003 18 88 1217 89 90 84 0 85 ?1 81 1 89 1532 3
0 88 91 0 92 93 94 17 90 0 35 52 36 88 95 96 0 48 +15 255 35 6 0 52 97 98 17 52
 0 35 68 90 29 48 99 0 100 +17 36 0 35 90 28 77 40 101 0 102 +17 95 0 103 104 10
5 77 90 96 0 0 -16 96 1248 106 ?90 107 108 109 0 0 1 17 48 0 47 110 42 88 52 99
 0 105 -15 47 477 0 49 111 0 17 110 0 47 49 48 84 105 112 0 113 +16 99 1218 93 ?
52 114 115 116 0 0 1 17 105 0 103 95 87 88 110 112 0 0 -15 103 1260 0 95 117 0 1
7 87 0 103 105 104 84 118 119 0 110 -16 112 1225 120 ?110 119 121 122 0 0 1 81 1
 120 1536 30 112 123 0 124 82 125 16 119 1234 126 ?118 108 112 127 0 0 1 16 121
 142 128 ?129 112 130 131 0 0 1 30 122 1227 0 112 132 127 0 +.02073855423142545
 .000824118397900038 .003 0 0 -1 31 255 132 454 0 115 133 122 0 +-.0049843779590
8619 .01612994540554055 0 0 0 1 1 0 0 .00375 31 127 1236 0 119 122 134 0 -.01236
911924597426 -.00464877462355633 0 0 0 1 1 0 0 .01 30 134 1245 0 108 127 109 0 -
.01934381976671935 -.0118149139360396 .003 0 0 -1 16 108 1243 135 ?102 96 119 13
4 0 0 1 31 109 1250 0 96 134 136 0 +.01236911924597426 -.00464877462355633 .003
 0 0 1 1 0 0 .01 30 136 1319 0 107 109 137 0 --.0175880862596027 -.0110193477333
419 .003 0 0 -1 16 107 1317 138 ?64 139 96 136 0 0 1 30 137 1324 0 139 136 140 0
 +-.01243764288812976 .01468498198790074 .003 0 0 -1 16 139 1322 141 ?142 143 10
7 137 0 0 1 31 140 1337 0 143 137 144 0 --.00759014453478704 -.01081646533590316
 0 0 0 1 1 0 0 .01 16 143 1335 145 ?72 146 139 140 0 0 1 31 144 1342 0 146 140 1
47 0 --.00328969697500639 .01064578830963156 0 0 0 1 1 0 0 .01 16 146 1340 45 ?6
0 51 143 144 0 0 1 30 147 1351 0 51 144 148 0 -.001984728010003925 .019141695623
00895 .003 0 0 -1 16 51 1349 32 ?42 39 146 147 0 0 1 31 148 1360 0 39 147 21 0 +
-.00759014453478704 -.01081646533590316 .003 0 0 1 1 0 0 .01 16 39 1358 149 ?28
 26 51 148 0 0 1 31 21 1365 0 26 148 8 0 +-.00328969697500639 .01064578830963156
 .003 0 0 1 1 0 0 .01 16 26 1363 150 ?68 11 39 21 0 0 1 81 1 150 1561 30 26 151
 0 149 24 152 17 68 0 35 37 52 65 100 26 0 153 +17 37 0 35 28 68 61 153 114 0 38
 +17 100 0 154 50 155 29 68 26 0 0 -17 153 0 156 142 64 65 37 114 0 155 -15 156
 475 0 153 157 0 17 142 0 156 158 153 73 155 139 0 159 +17 64 0 156 153 158 61 1
60 107 0 37 +16 114 1310 161 ?37 101 99 162 0 0 1 17 155 0 154 100 76 65 142 139
 0 0 -15 154 1383 0 100 163 0 17 76 0 154 155 50 73 60 146 0 142 -17 50 0 154 76
 100 55 42 51 0 0 -17 60 0 164 113 159 55 76 146 0 49 +15 164 408 0 159 165 166
 17 113 0 164 118 60 84 49 167 0 0 -17 159 0 164 60 72 73 158 168 0 0 -17 49 0 4
7 42 110 55 113 167 0 50 +16 167 1222 124 ?49 168 0 169 0 0 1 81 1 124 1535 30 1
67 170 0 86 120 171 16 168 1302 172 ?158 173 167 174 0 0 1 31 169 458 0 167 131
 174 0 +-.0299749908835431 -.03233819275398735 0 0 0 1 1 0 0 .06059375 31 131 14
4 0 121 175 169 0 +-.00498437795908619 .01612994540554055 .003 0 0 1 1 0 0 .0037
5 31 174 457 0 168 169 176 0 +.0429931918792023 -.00979000720636161 0 0 0 1 1 0
 0 .06059375 31 176 456 0 173 174 133 0 +-.00364921494335717 .01180922439923182
 0 0 0 1 1 0 0 .03296633976138125 16 173 1332 177 ?83 178 168 176 0 0 1 31 133 4
55 0 178 176 132 0 +.003690489297139395 -.01194279233461336 0 0 0 1 1 0 0 .004 1
6 178 417 179 ?180 115 173 133 0 0 1 81 1 179 1526 30 178 181 0 182 183 184 17 1
80 0 185 180 180 0 186 178 0 0 +16 115 411 182 ?187 99 178 132 0 0 1 81 1 182 15
25 30 115 188 0 189 179 190 17 187 0 166 187 187 0 191 115 0 0 +15 166 409 0 187
 165 185 17 191 0 192 191 191 0 187 115 0 0 -15 192 467 0 191 193 0 14 255 193 4
66 194 ?157 111 195 6 196 +0 0 157 111 23 81 1 194 1602 197 193 183 0 198 199 20
0 14 157 476 199 ?201 193 156 6 202 -0 0 201 193 23 14 111 478 198 ?193 17 47 6
 203 -0 0 193 17 23 15 195 465 0 129 193 192 51 196 479 0 193 204 205 0 --.00498
437795908619 .01612994540554055 .003 0 0 -1 .00375 -1 0 0 13 23 239 0 0 0 0 0 0
 10 17 14 17 474 206 ?111 0 207 6 208 -0 0 111 0 23 81 1 206 1600 197 17 209 0 0
 198 210 15 207 473 0 40 17 0 51 208 481 0 17 205 202 0 --.00364921494335717 .01
180922439923182 .003 0 0 -1 .03296633976138125 -1 0 0 51 205 480 0 201 196 208 0
 -.003690489297139395 -.01194279233461336 .003 0 0 -1 .004 -1 0 0 51 202 482 0 1
57 208 203 0 -.0429931918792023 -.00979000720636161 .003 0 0 -1 .06059375 -1 0 0
 51 203 483 0 111 202 211 0 --.0299749908835431 -.03233819275398735 .003 0 0 -1
 .06059375 -1 0 0 51 211 1271 0 117 203 20 0 +.01236911924597426 -.0046487746235
5633 .003 0 0 -1 .01 -1 0 0 14 117 1259 212 ?163 165 103 6 211 +0 0 163 165 23 5
1 20 1394 0 163 211 7 0 +-.00328969697500639 .01064578830963156 .003 0 0 -1 .01
 -1 0 0 14 163 1382 213 ?19 117 154 6 20 +0 0 19 117 23 81 1 213 1608 197 163 21
4 0 212 215 216 14 19 1403 215 ?0 163 217 6 7 +0 0 0 163 23 81 1 215 1609 197 19
 218 0 213 0 219 15 217 1404 0 38 19 0 17 38 0 217 160 220 61 28 39 0 0 -17 160
 0 217 54 38 69 64 107 0 0 -17 220 0 217 38 54 12 25 11 0 0 -17 54 0 217 220 160
 43 72 143 0 25 -17 25 0 207 83 40 43 220 11 0 221 +17 83 0 207 102 25 80 221 17
3 0 118 +17 40 0 207 25 102 12 36 101 0 220 -17 221 0 164 72 118 43 83 173 0 0 -
17 72 0 164 159 221 69 54 143 0 158 +17 118 0 164 221 113 80 87 119 0 104 +17 10
4 0 103 87 95 80 102 108 0 0 -17 102 0 207 40 83 77 104 108 0 95 +17 158 0 156 6
4 142 69 159 168 0 160 +16 101 1355 33 ?36 130 114 222 0 0 1 81 1 33 1559 30 101
 223 0 27 149 224 16 130 132 225 ?226 121 101 175 0 0 1 31 222 124 0 101 162 175
 0 +-.00364921494335717 .01180922439923182 .003 0 0 1 1 0 0 .03296633976138125 3
1 162 79 0 114 116 222 0 +.0429931918792023 -.00979000720636161 .003 0 0 1 1 0 0
 .06059375 31 175 134 0 130 222 131 0 +.003690489297139395 -.01194279233461336 .
003 0 0 1 1 0 0 .004 31 116 54 0 99 0 162 0 +-.0299749908835431 -.03233819275398
735 .003 0 0 1 1 0 0 .06059375 81 1 225 1522 30 130 227 0 228 128 229 17 226 0 2
30 226 226 0 231 130 0 0 +15 230 469 0 226 201 232 17 231 0 233 231 231 0 226 13
0 0 0 -15 233 249 0 231 97 0 14 97 1 234 ?165 201 35 6 235 +0 0 165 201 23 81 1
 234 1605 197 97 228 0 236 237 238 14 165 385 237 ?117 97 164 6 204 -0 0 117 97
 23 14 201 470 236 ?97 157 230 6 205 +0 0 97 157 23 50 255 235 3 0 97 0 204 0 +.
003387727142067995 .00136423465353866 .003 0 0 1 1 0 0 50 204 453 0 165 235 196
 0 +.003387727142067995 .00136423465353866 0 0 0 1 1 0 0 81 1 236 1604 197 201 2
39 0 199 234 240 80 7 CCCCCDI12 legal_owners0 16 1 lCZ1 197 0 241 8001 0 0 0 0 3
 5 0 0 0 FFFFTFTFFFFFFFFF2 81 1 239 1528 30 201 242 236 183 209 243 81 1 199 160
3 197 157 244 0 194 236 245 83 255 3 240 .615686274509804 .811764705882353 .9294
11764705882 81 1 244 1530 30 157 246 199 209 92 247 83 3 245 .615686274509804 .8
11764705882353 .929411764705882 80 1 30 248 249 9000 0 0 0 0 3 6 0 0 0 FFTFTFTTF
FFFFFFF1 81 1 246 1510 250 157 0 244 251 242 252 81 1 209 1529 30 17 253 206 239
 244 254 81 1 92 1531 30 111 255 198 244 89 256 82 255 3 247 4 5 2 81 1 255 1508
 250 111 0 92 253 251 257 81 1 198 1601 197 111 92 0 206 194 258 82 3 256 4 6 2
 83 3 258 .615686274509804 .811764705882353 .929411764705882 80 1 250 259 260 90
00 0 0 0 0 3 5 0 0 0 FFTFTFTTFFFFFFFF2 81 1 253 1507 250 17 0 209 170 255 261 81
 1 251 1509 250 193 0 183 255 246 262 83 1 257 35 81 1 183 1527 30 193 251 194 1
79 239 263 83 1 262 36 82 3 263 4 2 2 81 1 170 1506 250 167 0 124 264 253 265 83
 1 261 34 81 1 264 1505 250 168 0 172 266 170 267 83 1 265 33 81 1 172 1544 30 1
68 264 0 75 71 268 81 1 266 1504 250 173 0 177 181 264 269 83 1 267 32 81 1 177
 1553 30 173 266 0 53 145 270 81 1 181 1503 250 178 0 179 188 266 271 83 1 269 3
1 81 1 188 1502 250 115 0 182 272 181 273 83 1 271 30 81 1 272 1501 250 99 0 93
 274 188 275 83 1 273 29 81 1 93 1533 30 99 272 0 89 86 276 81 1 274 1500 250 11
4 0 161 223 272 277 83 1 275 28 81 1 161 1547 30 114 274 0 67 63 278 81 1 223 14
99 250 101 0 33 227 274 279 83 1 277 27 81 1 227 1498 250 130 0 225 280 223 281
 83 1 279 26 81 1 280 1497 250 121 0 128 123 227 282 83 1 281 25 81 1 128 1523 3
0 121 280 0 225 189 283 81 1 123 1496 250 112 0 120 284 280 285 83 1 282 24 81 1
 284 1495 250 119 0 126 286 123 287 83 1 285 23 81 1 126 1538 30 119 284 0 82 79
 288 81 1 286 1494 250 108 0 135 289 284 290 83 1 287 22 81 1 135 1540 30 108 28
6 0 79 106 291 81 1 289 1493 250 96 0 106 292 286 293 83 1 290 21 81 1 106 1541
 30 96 289 0 135 294 295 81 1 292 1492 250 107 0 138 296 289 297 83 1 293 20 81
 1 138 1549 30 107 292 0 63 141 298 81 1 296 1491 250 139 0 141 299 292 300 83 1
 297 19 81 1 141 1550 30 139 296 0 138 59 301 81 1 299 1490 250 143 0 145 302 29
6 303 83 1 300 18 81 1 145 1554 30 143 299 0 177 45 304 81 1 302 1489 250 146 0
 45 305 299 306 83 1 303 17 81 1 45 1555 30 146 302 0 145 41 307 81 1 305 1488 2
50 51 0 32 308 302 309 83 1 306 16 81 1 32 1557 30 51 305 0 41 27 310 81 1 308 1
487 250 39 0 149 151 305 311 83 1 309 15 81 1 149 1560 30 39 308 0 33 150 312 81
 1 151 1486 250 26 0 150 313 308 314 83 1 311 14 81 1 313 1485 250 11 0 24 91 15
1 315 83 1 314 13 81 1 24 1562 30 11 313 0 150 214 316 81 1 91 1484 250 88 0 89
 317 313 318 83 1 315 12 81 1 317 1483 250 84 0 86 319 91 320 83 1 318 11 81 1 8
6 1534 30 84 317 0 93 124 321 81 1 319 1482 250 80 0 82 322 317 323 83 1 320 10
 81 1 82 1537 30 80 319 0 120 126 324 81 1 322 1481 250 77 0 79 325 319 326 83 1
 323 9 81 1 79 1539 30 77 322 0 126 135 327 81 1 325 1480 250 73 0 75 328 322 32
9 83 1 326 8 81 1 75 1543 30 73 325 0 294 172 330 81 1 328 1479 250 69 0 71 331
 325 332 83 1 329 7 81 1 71 1545 30 69 328 0 172 67 333 81 1 331 1478 250 65 0 6
7 334 328 335 83 1 332 6 81 1 67 1546 30 65 331 0 71 161 336 81 1 334 1477 250 6
1 0 63 337 331 338 83 1 335 5 81 1 63 1548 30 61 334 0 161 138 339 81 1 337 1476
 250 55 0 59 340 334 341 83 1 338 4 81 1 59 1551 30 55 337 0 141 53 342 81 1 340
 1475 250 43 0 53 44 337 343 83 1 341 3 81 1 53 1552 30 43 340 0 59 177 344 81 1
 44 1474 250 29 0 41 31 340 345 83 1 343 2 81 1 31 1473 250 12 0 27 0 44 346 83
 1 345 1 83 1 346 0 82 3 344 4 9 0 82 3 342 4 8 0 82 3 339 4 7 0 82 3 336 4 6 0
 82 3 333 4 5 0 81 1 294 1542 30 117 347 212 106 75 348 82 3 330 4 4 0 81 1 347
 1514 250 117 0 294 349 350 351 81 1 212 1607 197 117 294 0 237 213 352 82 3 348
 4 7 2 81 1 237 1606 197 165 189 0 234 212 353 83 3 352 .615686274509804 .811764
705882353 .929411764705882 81 1 189 1524 30 165 349 237 128 182 354 83 3 353 .61
5686274509804 .811764705882353 .929411764705882 81 1 349 1513 250 165 0 189 355
 347 356 82 3 354 4 1 2 81 1 355 1512 250 97 0 228 242 349 357 83 1 356 40 81 1
 228 1521 30 97 355 234 358 225 359 81 1 242 1511 250 201 0 239 246 355 360 83 1
 357 39 83 1 360 38 81 1 358 1520 30 1 361 362 0 228 363 82 3 359 4 0 2 81 1 361
 1518 364 1 365 358 0 0 366 81 1 362 1597 367 1 358 14 0 0 368 82 3 363 4 0 3 80
 1 367 369 370 8038 0 0 0 0 0 0 0 0 0 TTTTTTTTTTTTTFTF10 81 1 14 1598 369 1 362
 2 0 0 371 98 255 6 368 80 97 114 116 32 49 80 1 369 372 373 8017 0 0 0 0 0 0 0
 0 0 TTTTTTTTTTTTTFTF3 84 255 6 371 Part 179 255 13 373 SDL/TYSA_NAME79 14 370 S
DL/TYSA_UNAME80 1 364 250 374 9000 0 0 0 0 3 5 0 0 0 FFTFTFTTFFFFFFFF2 81 1 365
 1517 250 1 0 361 375 0 376 83 1 366 43 81 1 375 1516 250 19 0 218 350 365 377 8
3 1 376 -1 81 1 218 1564 30 19 375 215 214 0 378 81 1 350 1515 250 163 0 214 347
 375 379 83 1 377 43 81 1 214 1563 30 163 350 213 24 218 380 83 1 379 42 82 3 38
0 4 8 2 82 3 378 4 9 2 79 18 374 BTI/importMaxCount83 1 351 41 82 3 327 4 3 0 82
 3 324 4 2 0 82 3 321 4 1 0 82 3 316 4 21 1 82 3 312 4 19 1 82 3 310 4 17 1 82 3
 307 4 16 1 82 3 304 4 15 1 82 3 301 4 13 1 82 3 298 4 12 1 82 3 295 4 9 1 82 3
 291 4 8 1 82 3 288 4 7 1 82 3 283 4 1 1 82 3 278 4 11 1 82 3 276 4 4 1 82 3 270
 4 14 1 82 3 268 4 10 1 79 13 260 BTI/importTag82 3 254 4 4 2 83 1 252 37 79 9 2
49 BTI/DetId82 3 243 4 3 2 79 15 241 SDL/TYSA_COLOUR83 3 238 .615686274509804 .8
11764705882353 .929411764705882 15 232 471 0 186 201 0 17 186 0 232 186 186 0 18
0 178 0 0 -82 3 229 4 0 1 82 3 224 4 18 1 83 3 219 .615686274509804 .81176470588
2353 .929411764705882 83 3 216 .615686274509804 .811764705882353 .92941176470588
2 83 3 210 .615686274509804 .811764705882353 .929411764705882 17 129 0 195 129 1
29 0 381 121 0 0 +17 381 0 98 381 381 0 129 121 0 0 -15 98 244 0 381 97 233 83 3
 200 .615686274509804 .811764705882353 .929411764705882 15 185 410 0 180 165 0 8
2 3 190 4 2 1 82 3 184 4 3 1 82 3 171 4 5 1 82 3 152 4 20 1 82 3 125 4 6 1 82 3
 94 4 0 0 82 3 46 4 10 0 82 3 34 4 11 0 19 18 488 0 1 0 10 6 0 S0 74 4 CI16 inde
x_map_offset0 0 1 dCCZ20 16 7 0 0 365 361 218 362 14 2 215 0 0 0 0 0 0 0 0 0 0 0
 0 0 80 1 13 197 382 8040 0 0 0 0 3 5 0 0 0 TTTFFFFFFFFFFFFF2 83 3 15 .615686274
509804 .811764705882353 .929411764705882 79 17 382 SDL/TYSA_COLOUR_21 0 
