**ABCDEFGHIJKLMNOPQRSTUVWXYZabcdefghijklmnopqrstuvwxyz**************************
**PARASOLID !"#$%&'()*+,-./:;<=>?@[\]^_`{|}~0123456789**************************
**PART1;
MC=unknown;
MC_MODEL=unknown;
MC_ID=unknown;
OS=unknown;
OS_RELEASE=unknown;
FRU=Parasolid 34.1.198;
APPL=Onshape;
SITE=unknown;
USER=unknown;
FORMAT=text;
GUISE=transmit;
KEY=BTGapi::writeModels_.xmt;
FILE=BTGapi::writeModels_.xmt;
DATE=2022-05-28T15:22:29 (UTC);
**PART2;
SCH=SCH_3401198_34101;
USFLD_SIZE=0;
**PART3;
**END_OF_HEADER*****************************************************************
T51 : TRANSMIT FILE created by modeller version 340119823 SCH_3401198_34101_1300
6231 0 12 36 CCCI7 lattice222 0 CCCI4 mesh1006 0 I8 polyline1008 0 CCCCCCCDI5 ow
ner1040 0 CCCI16 boundary_lattice222 0 CCCI13 boundary_mesh1006 0 I17 boundary_p
olyline1008 0 CCCA16 index_map_offset0 0 1 dA9 index_map82 0 A17 node_id_index_m
ap82 0 A20 schema_embedding_map82 0 A5 child12 0 A14 lowest_node_id0 0 1 dA16 me
sh_offset_data206 0 Z1 502 2 3 0 0 0 0 0 0 0 1e3 1e-8 0 4 0 1 0 1 1 5 0 6 7 0 0
 0 8 9 0 0 0 0 0 0 0 0 81 255 1 2 499 10 1 11 0 0 0 12 70 11 CI9 list_type0 0 1
 uI10 notransmit0 0 1 lCCCDCCDI12 finger_index0 0 1 dI12 finger_block1012 0 CZ3
 0 4 T1 0 0 7 20 1 13 13 13 255 5 468 0 1 0 14 0 0 15 0 50 255 6 148 0 16 17 0 0
 +0 0 -.035 0 0 -1 1 0 0 31 255 7 444 0 9 18 0 0 +0 2449293598294705e-34 -.035 0
 0 -1 -1 0 0 .004 19 9 CCCCCCI5 frame230 0 CA5 owner12 0 Z8 470 0 1 15 0 19 0 V0
 16 255 9 392 20 ?21 0 22 7 0 0 1 81 1 20 494 23 9 24 0 25 26 27 17 255 21 0 28
 21 21 0 29 9 0 0 +16 22 395 26 ?30 9 0 18 0 0 1 81 1 26 495 23 22 31 0 20 32 33
 17 30 0 34 30 30 0 35 22 0 0 +31 18 447 0 22 0 7 0 +0 2449293598294705e-34 .012
5 0 0 1 1 0 0 .004 15 255 34 365 0 30 14 0 17 35 0 36 35 35 0 30 22 0 0 -15 36 4
22 0 35 37 0 14 255 37 418 38 ?16 14 39 5 40 +0 0 16 14 19 81 1 38 501 41 37 32
 0 42 43 44 14 16 136 43 ?0 37 28 5 6 +0 0 0 37 19 14 14 199 42 ?37 0 34 5 17 +0
 0 37 0 19 15 39 421 0 29 37 36 51 255 40 440 0 37 0 17 0 +0 2449293598294705e-3
4 -.0421 0 0 1 .004 1 0 0 13 19 469 0 0 0 0 0 0 8 14 50 17 211 0 14 40 6 0 +0 0
 .0125 0 0 1 1 0 0 17 29 0 39 29 29 0 21 9 0 0 -81 1 42 500 41 14 25 0 0 38 45 8
0 7 CCCCCDI12 legal_owners0 16 1 lCZ1 41 0 46 8001 0 0 0 0 3 5 0 0 0 FFFFTFTFFFF
FFFFF2 81 1 25 493 23 14 47 42 48 20 49 83 255 3 45 .615686274509804 .8117647058
82353 .929411764705882 80 1 23 50 51 9000 0 0 0 0 3 6 0 0 0 FFTFTFTTFFFFFFFF1 81
 1 47 485 52 14 0 25 31 53 54 81 1 48 492 23 16 55 43 56 25 57 82 255 3 49 4 1 2
 81 1 55 487 52 16 0 48 53 58 59 81 1 43 502 41 16 48 0 38 0 60 81 1 56 491 23 1
 61 62 0 48 63 82 3 57 4 0 2 81 1 61 489 64 1 58 56 0 0 65 81 1 62 497 66 1 56 1
1 0 0 67 82 3 63 4 0 3 80 1 66 68 69 8038 0 0 0 0 0 0 0 0 0 TTTTTTTTTTTTTFTF10 8
1 1 11 498 68 1 62 2 0 0 70 98 255 6 67 80 97 114 116 32 49 80 1 68 71 72 8017 0
 0 0 0 0 0 0 0 0 TTTTTTTTTTTTTFTF3 84 255 6 70 Part 179 255 13 72 SDL/TYSA_NAME7
9 14 69 SDL/TYSA_UNAME80 1 64 52 73 9000 0 0 0 0 3 5 0 0 0 FFTFTFTTFFFFFFFF2 81
 1 58 488 52 1 0 61 55 0 74 83 1 65 4 80 1 52 75 76 9000 0 0 0 0 3 5 0 0 0 FFTFT
FTTFFFFFFFF2 83 1 74 -1 79 13 76 BTI/importTag79 18 73 BTI/importMaxCount83 3 60
 .615686274509804 .811764705882353 .929411764705882 81 1 53 486 52 37 0 32 47 55
 77 83 1 59 4 81 1 32 496 23 37 53 38 26 0 78 83 1 77 3 82 3 78 4 2 2 81 1 31 48
4 52 22 0 26 24 47 79 83 1 54 2 81 1 24 483 52 9 0 20 0 31 80 83 1 79 1 83 1 80
 0 79 9 51 BTI/DetId79 15 46 SDL/TYSA_COLOUR15 28 372 0 21 16 0 83 3 44 .6156862
74509804 .811764705882353 .929411764705882 82 3 33 4 1 1 82 3 27 4 0 1 19 15 40
 0 1 0 8 5 0 S0 74 4 CI16 index_map_offset0 0 1 dCCZ20 13 7 0 0 58 61 32 62 11 2
 43 0 0 0 0 0 0 0 0 0 0 0 0 0 80 1 10 41 81 8040 0 0 0 0 3 5 0 0 0 TTTFFFFFFFFFF
FFF2 83 3 12 .615686274509804 .811764705882353 .929411764705882 79 17 81 SDL/TYS
A_COLOUR_21 0 
