**ABCDEFGHIJKLMNOPQRSTUVWXYZabcdefghijklmnopqrstuvwxyz**************************
**PARASOLID !"#$%&'()*+,-./:;<=>?@[\]^_`{|}~0123456789**************************
**PART1;
MC=unknown;
MC_MODEL=unknown;
MC_ID=unknown;
OS=unknown;
OS_RELEASE=unknown;
FRU=Parasolid 34.1.198;
APPL=Onshape;
SITE=unknown;
USER=unknown;
FORMAT=text;
GUISE=transmit;
KEY=BTGapi::writeModels_.xmt;
FILE=BTGapi::writeModels_.xmt;
DATE=2022-05-28T15:22:08 (UTC);
**PART2;
SCH=SCH_3401198_34101;
USFLD_SIZE=0;
**PART3;
**END_OF_HEADER*****************************************************************
T51 : TRANSMIT FILE created by modeller version 340119823 SCH_3401198_34101_1300
6231 0 12 36 CCCI7 lattice222 0 CCCI4 mesh1006 0 I8 polyline1008 0 CCCCCCCDI5 ow
ner1040 0 CCCI16 boundary_lattice222 0 CCCI13 boundary_mesh1006 0 I17 boundary_p
olyline1008 0 CCCA16 index_map_offset0 0 1 dA9 index_map82 0 A17 node_id_index_m
ap82 0 A20 schema_embedding_map82 0 A5 child12 0 A14 lowest_node_id0 0 1 dA16 me
sh_offset_data206 0 Z1 494 2 3 0 0 0 0 0 0 0 1e3 1e-8 0 4 5 1 0 1 1 6 0 7 8 0 0
 0 9 10 0 0 0 0 0 0 0 0 81 255 1 2 485 11 1 12 0 0 0 13 70 11 CI9 list_type0 0 1
 uI10 notransmit0 0 1 lCCCDCCDI12 finger_index0 0 1 dI12 finger_block1012 0 CZ3
 0 4 T1 0 0 6 20 1 14 14 13 255 6 39 0 1 0 15 0 0 16 0 51 255 7 38 0 17 18 0 0 -
0 229621274840129e-33 .003 0 0 -1 .00375 -1 0 0 31 255 8 406 0 10 19 0 0 -0 -153
080849893419e-34 .019 0 0 -1 -1 0 0 .004 19 9 CCCCCCI5 frame230 0 CA5 owner12 0
 Z9 13 0 1 16 0 20 0 V0 16 255 10 403 21 ?22 0 23 8 0 0 1 81 1 21 480 24 10 0 0
 25 26 27 17 255 22 0 28 22 22 0 29 10 0 0 +16 23 168 30 ?31 10 32 33 0 0 1 81 1
 30 374 24 23 34 0 35 36 37 17 31 0 38 31 31 0 39 23 0 0 +16 32 7 40 ?41 23 42 4
3 0 0 1 31 33 204 0 23 44 45 0 +0 2296212748401285e-34 .028 0 0 1 1 0 0 .00375 3
1 44 205 0 46 47 33 0 +0 2296212748401285e-34 .031 0 0 1 1 0 0 .00375 31 45 148
 0 48 33 43 0 +0 765404249467096e-33 .028 0 0 1 1 0 0 .0075 16 48 118 49 ?50 42
 46 45 0 0 1 31 43 9 0 32 45 19 0 +0 229621274840129e-33 .003 0 0 1 1 0 0 .00375
 31 19 33 0 42 43 8 0 +0 229621274840129e-33 0 0 0 1 1 0 0 .00375 16 42 28 51 ?5
2 32 48 19 0 0 1 81 1 51 366 24 42 53 0 54 55 56 17 52 0 57 52 52 0 58 42 0 0 +1
5 255 57 36 0 52 17 0 17 58 0 59 58 58 0 52 42 0 0 -15 59 27 0 58 60 0 14 255 60
 23 61 ?17 62 59 6 18 -0 0 17 62 20 81 1 61 491 63 60 54 0 64 65 66 14 17 35 65
 ?67 60 68 6 7 -0 0 67 60 20 14 62 447 64 ?60 69 70 6 71 +0 0 60 69 20 50 255 18
 32 0 60 72 7 0 +0 0 0 0 0 1 1 0 0 13 20 14 0 0 0 0 0 0 9 15 14 15 128 73 ?74 0
 75 6 76 -0 0 74 0 20 81 1 73 486 63 15 26 0 0 77 78 14 74 133 77 ?79 15 80 6 81
 +0 0 79 15 20 15 75 131 0 82 15 83 51 76 144 0 15 81 72 0 -0 765404249467096e-3
3 .028 0 0 -1 .0075 -1 0 0 50 81 146 0 74 84 76 0 +0 0 .028 0 0 1 1 0 0 50 72 92
 0 67 76 18 0 +0 0 .003 0 0 1 1 0 0 14 67 84 85 ?86 17 87 6 72 -0 0 86 17 20 81
 1 85 493 63 67 88 0 65 89 90 14 86 286 89 ?0 67 91 6 92 +0 0 0 67 20 15 87 87 0
 41 67 93 17 41 0 87 41 41 0 94 32 0 0 +15 93 256 0 95 67 0 17 95 0 93 95 95 0 9
6 97 0 0 +17 96 0 98 96 96 0 95 97 0 0 -16 97 268 99 ?95 46 100 47 0 0 1 81 1 99
 378 24 97 101 0 102 103 104 16 46 183 36 ?105 48 97 44 0 0 1 16 100 419 103 ?10
6 97 0 107 0 0 1 31 47 313 0 97 107 44 0 +0 -153080849893419e-34 .003 0 0 -1 -1
 0 0 .004 31 107 466 0 100 0 47 0 +0 765404249467096e-33 .019 0 0 1 1 0 0 .0075
 81 1 103 421 24 100 0 0 99 108 109 17 106 0 83 106 106 0 110 100 0 0 +15 83 440
 0 106 15 0 17 110 0 70 110 110 0 106 100 0 0 -15 70 450 0 110 62 28 15 28 451 0
 22 62 0 80 7 CCCCCDI12 legal_owners0 16 1 lCZ1 24 111 112 9000 0 0 0 0 3 6 0 0
 0 FFTFTFTTFFFFFFFF1 81 1 108 449 24 62 0 64 103 25 113 82 255 3 109 7 1 1 81 1
 64 490 63 62 108 0 114 61 115 81 1 25 479 24 1 0 116 108 21 117 82 3 113 7 2 2
 81 1 116 483 118 1 25 12 0 0 119 82 3 117 4 0 3 80 1 118 120 121 8038 0 0 0 0 0
 0 0 0 0 TTTTTTTTTTTTTFTF10 81 1 12 484 120 1 116 2 0 0 122 98 255 6 119 80 97 1
14 116 32 49 80 1 120 123 124 8017 0 0 0 0 0 0 0 0 0 TTTTTTTTTTTTTFTF3 84 255 6
 122 Part 179 255 13 124 SDL/TYSA_NAME79 14 121 SDL/TYSA_UNAME80 1 63 0 125 8001
 0 0 0 0 3 5 0 0 0 FFFFTFTFFFFFFFFF2 81 1 114 489 63 69 102 0 126 64 127 83 255
 3 115 .615686274509804 .811764705882353 .929411764705882 14 69 191 114 ?62 79 1
28 6 129 +0 0 62 79 20 81 1 102 377 24 69 130 114 131 99 132 81 1 126 488 63 79
 131 0 77 114 133 83 3 127 .615686274509804 .811764705882353 .929411764705882 14
 79 186 126 ?69 74 134 6 84 -0 0 69 74 20 81 1 131 376 24 79 135 126 36 102 136
 81 1 77 487 63 74 35 0 73 126 137 83 3 133 .615686274509804 .811764705882353 .9
29411764705882 81 1 35 372 24 74 138 77 49 30 139 83 3 137 .615686274509804 .811
764705882353 .929411764705882 81 1 138 352 140 74 0 35 101 135 141 81 1 49 370 2
4 48 142 0 88 35 143 82 3 139 4 4 2 81 1 142 346 140 48 0 49 53 144 145 81 1 88
 368 24 67 146 85 55 49 147 82 3 143 4 3 1 81 1 146 359 140 67 0 88 148 0 149 81
 1 55 367 24 17 148 65 51 88 150 82 3 147 4 2 2 81 1 148 358 140 17 0 55 151 146
 152 81 1 65 492 63 17 55 0 61 85 153 82 3 150 4 1 2 83 3 153 .615686274509804 .
811764705882353 .929411764705882 80 1 140 154 155 9000 0 0 0 0 3 5 0 0 0 FFTFTFT
TFFFFFFFF2 81 1 151 357 140 60 0 54 156 148 157 83 1 152 15 81 1 54 365 24 60 15
1 61 40 51 158 81 1 156 356 140 86 0 159 130 151 160 83 1 157 14 81 1 159 482 24
 86 156 89 26 0 161 81 1 130 355 140 69 0 102 135 156 162 83 1 160 13 81 1 135 3
54 140 79 0 131 138 130 163 83 1 162 12 83 1 163 11 81 1 89 494 63 86 159 0 85 0
 164 81 1 26 481 24 15 0 73 21 159 165 82 3 161 8 1 2 82 3 165 8 0 2 83 3 164 .6
15686274509804 .811764705882353 .929411764705882 81 1 40 364 24 32 166 0 0 54 16
7 82 3 158 4 0 2 81 1 166 344 140 32 0 40 34 53 168 82 3 167 4 0 1 81 1 34 343 1
40 23 0 30 0 166 169 81 1 53 345 140 42 0 51 166 142 170 83 1 168 1 83 1 170 2 8
3 1 169 0 79 13 155 BTI/importTag83 1 149 16 81 1 144 348 140 46 0 36 142 101 17
1 83 1 145 3 81 1 36 375 24 46 144 0 30 131 172 81 1 101 350 140 97 0 99 144 138
 173 83 1 171 5 83 1 173 7 82 3 172 4 5 1 83 1 141 9 82 3 136 4 6 2 15 134 189 0
 174 79 38 51 84 201 0 79 129 81 0 -0 2296212748401285e-34 .031 0 0 -1 .00375 -1
 0 0 50 129 203 0 69 92 84 0 +0 0 .031 0 0 1 1 0 0 51 92 308 0 86 71 129 0 +0 -1
53080849893419e-34 .0205 0 0 -1 .004 -1 0 0 50 71 462 0 62 0 92 0 +0 0 .019 0 0
 -1 1 0 0 17 174 0 134 174 174 0 105 46 0 0 -15 38 190 0 31 79 0 17 105 0 128 10
5 105 0 174 46 0 0 +15 128 194 0 105 69 0 82 3 132 4 7 2 79 15 125 SDL/TYSA_COLO
UR79 9 112 BTI/DetId82 3 104 4 6 1 15 98 290 0 96 86 0 17 94 0 68 94 94 0 41 32
 0 0 -15 68 34 0 94 17 57 15 91 405 0 29 86 98 17 29 0 91 29 29 0 22 10 0 0 -83
 3 90 .615686274509804 .811764705882353 .929411764705882 17 82 0 75 82 82 0 50 4
8 0 0 -17 50 0 175 50 50 0 82 48 0 0 +15 175 136 0 50 74 0 15 80 170 0 39 74 175
 17 39 0 80 39 39 0 31 23 0 0 -83 3 78 .615686274509804 .811764705882353 .929411
764705882 83 3 66 .615686274509804 .811764705882353 .929411764705882 82 3 56 4 1
 1 82 3 37 4 4 1 82 3 27 8 0 1 19 16 40 0 1 0 9 6 0 S0 74 4 CI16 index_map_offse
t0 0 1 dCCZ20 14 6 0 0 146 159 116 12 2 89 0 0 0 0 0 0 0 0 0 0 0 0 0 0 80 1 11 6
3 176 8040 0 0 0 0 3 5 0 0 0 TTTFFFFFFFFFFFFF2 83 3 13 .615686274509804 .8117647
05882353 .929411764705882 79 17 176 SDL/TYSA_COLOUR_21 0 
